<?xml version="1.0" encoding="utf-8"?>
<!-- Generator: Adobe Illustrator 20.0.0, SVG Export Plug-In . SVG Version: 6.00 Build 0)  -->
<svg version="1.1" id="Layer_1" xmlns="http://www.w3.org/2000/svg" xmlns:xlink="http://www.w3.org/1999/xlink" x="0px" y="0px"
	 viewBox="0 0 92.4 58.8" style="enable-background:new 0 0 92.4 58.8;" xml:space="preserve">
<style type="text/css">
	.st0{fill:#FFFFFF;}
</style>
<title>Layer 1 copy</title>
<g>
	<g>
		<path class="st0" d="M0,27.9C0.3,12.8,14.2-0.5,29.3,0c7.3-0.3,14.1,2.8,19.6,7.3c-2.4,2.7-4.8,5.3-7.4,7.7
			c-6.7-4.6-16.2-5.9-22.9-0.6c-9.6,6.6-10,22.2-0.8,29.3c8.9,8.1,25.8,4.1,28.3-8.3c-5.6-0.1-11.2,0-16.8-0.2c0-3.3,0-6.7,0-10
			c9.4,0,18.7,0,28.1,0c0.6,7.9-0.5,16.2-5.3,22.7c-7.3,10.3-22,13.3-33.4,8.9C7.2,52.4-1,40.3,0,27.9z"/>
		<path class="st0" d="M75.6,16.7c2.8,0,5.6,0,8.3,0c0,2.8,0,5.6,0.1,8.4c2.8,0,5.6,0,8.4,0.1c0,2.8,0,5.6,0,8.3
			c-2.8,0-5.6,0-8.4,0.1c0,2.8,0,5.6-0.1,8.4c-2.8,0-5.6,0-8.4,0c0-2.8,0-5.6-0.1-8.4c-2.8,0-5.6-0.1-8.4-0.1c0-2.8,0-5.6,0-8.3
			c2.8,0,5.6,0,8.4-0.1C75.6,22.3,75.6,19.5,75.6,16.7z"/>
	</g>
</g>
</svg>
