<?xml version="1.0" encoding="utf-8"?>
<!-- Generator: Adobe Illustrator 20.0.0, SVG Export Plug-In . SVG Version: 6.00 Build 0)  -->
<svg version="1.1" id="Layer_1" xmlns="http://www.w3.org/2000/svg" xmlns:xlink="http://www.w3.org/1999/xlink" x="0px" y="0px"
	 viewBox="0 0 538.8 494.7" style="enable-background:new 0 0 538.8 494.7;" xml:space="preserve">
<style type="text/css">
	.st0{fill:#1578B5;stroke:#1578B5;stroke-width:2;stroke-miterlimit:10;}
	.st1{fill:#1A8FD8;stroke:#1A8FD8;stroke-width:2;stroke-miterlimit:10;}
	.st2{fill:#1A8FD8;}
	.st3{font-family:'DINAlternate-Bold';}
	.st4{font-size:177.2439px;}
</style>
<path id="XMLID_1_" class="st0" d="M41.3,278.9c-5.4-0.1-9.7-2.3-12.4-7.1c-2.8-5.2-1.7-11.8,3.9-16.5c1.1-0.5,2.3-1.2,3.3-1.6
	c3-1.1,3-1.1,3.2-4.3c0-0.2,0-0.5,0-0.6c0.5-5.7,0.9-11.3,1.4-17c0.5-5.7,1.1-11.4,1.5-17.2c0.5-5.8,0.9-11.6,1.4-17.3
	c0.6-7.3,1.3-14.5,1.9-21.9c0.4-4.4,0.8-8.9,1.2-13.4c0.4-4.4,0.7-8.9,1.1-13.2c0-0.5,0.3-1.3-0.5-1.5c-1.7-0.5-3.1-1.7-4.4-2.6
	c-0.9-1.7-2.1-3.3-2.4-5.3c-1-6.1,4.8-11.9,10.8-11c2.4,0.4,4.4,1.3,6,3.1c0.7,0.8,1.2,0.2,1.6-0.2c6.8-4.8,13.5-9.5,20.2-14.3
	c18.2-12.8,36.3-25.7,54.4-38.4c3.2-2.3,6.3-4.5,9.5-6.7c0.6-0.5,0.9-0.8,0.5-1.7c-2.9-6-0.8-12.4,3.9-15.8c5.2-4,12-3.5,16.8,0.9
	c0.2,0.2,0.4,0.3,0.5,0.5c-0.4,0.3-0.8,0.5-0.5,1.1c0.4,0.7,0.8,0.5,1.4,0.4c3.7,4.5,3.7,10.5-0.2,15.5c-0.8,1.1-0.7,1.7,0.1,2.6
	c15.5,18.8,31,37.5,46.5,56.3c2,2.4,4.1,4.9,6.1,7.3c0.5,0.5,0.7,1,1.6,0.5c6-3.5,11.9-3.5,17.9-0.1c0.1,0.1,0.2,0.1,0.3,0.1
	c0.3,0.5,0.5,0.9,1.2,0.9c4.4,3.8,6.9,8.5,6.6,14.5c-0.5,0.1-1.3-0.2-1.3,0.7c-0.1,0.9,0.7,0.6,1.1,0.8c-1.4,8.1-8.2,14-16.4,14.3
	c-2.2,0.1-4.4-0.3-6.4-1.2c-1.2-0.5-1.5-0.2-2.2,0.8c-8.3,14.4-16.7,28.6-25,42.9c-11.3,19.4-22.6,38.9-34,58.2
	c-0.8,1.4-1,2.1,0.4,3.4c4.8,4.4,7.1,10,5.4,16.5c-1.7,6.5-6,10.8-12.6,12.6c-3.3,0.8-6.4,0.5-9.6-0.5c-0.5-0.2-0.9-0.3-1.3-0.5
	c-0.2-0.2-0.3-0.4-0.5-0.5c-6.2-3.4-9.6-8.6-9.4-15.8c0-1.2-0.6-1.3-1.5-1.4c-13.4-2.5-26.7-5.2-40-7.8c-12.8-2.5-25.8-5-38.6-7.5
	c-0.8-0.2-1.1,0-1.4,0.7c-1,2.4-2.6,4.4-4.7,6.1c-0.3,0.2-0.5,0.5-0.7,0.6c-1.5,0.4-3,1.3-4.6,1.4C42.2,278.7,41.7,278.6,41.3,278.9
	z M210.9,156.6c-1.4,0.2-2.3,0.3-3.2,0.5c-6.6,0.8-13.1,1.7-19.7,2.5c-7.2,0.9-14.4,1.8-21.6,2.7c-6.5,0.8-13,1.6-19.5,2.5
	c-6.4,0.8-12.9,1.6-19.3,2.4c-4.9,0.6-9.8,1.3-14.6,1.9c-0.7,0.1-1,0.4-1.1,1.1c-0.5,4.2-2.5,7.4-6.1,9.6c-1,0.5-1.1,1-0.6,2.1
	c2,4.4,3.9,8.9,5.8,13.4c10.8,25,21.5,50.1,32.3,75.2c0.5,1.2,1,1.4,2.2,0.9c4.1-1.4,8.2-1.4,12.1,0.5c1.2,0.5,1.7,0.5,2.3-0.7
	c14.7-25.4,29.5-50.7,44.3-76c5.1-8.6,10-17.2,15.1-25.8c0.5-0.7,0.8-1.3-0.2-2c-3.3-2.3-5.4-5.5-6.6-9.4
	C212.1,156.8,211.7,156.3,210.9,156.6z M112.9,167.5c3.4-0.5,6.6-0.9,9.8-1.3c6.4-0.8,12.9-1.6,19.3-2.4c7.3-0.9,14.6-1.9,22-2.8
	s14.6-1.8,22-2.7c8.2-1.1,16.4-2.2,24.7-3.2c1-0.1,1.4-0.5,1.3-1.4c-0.3-3.9,1.3-7.2,3.5-10.4c0.7-1,2.3-1.7,2-3
	c-0.3-1.1-1.4-2-2.3-3c-10.1-12.3-20.3-24.6-30.4-36.9c-6.9-8.3-13.6-16.5-20.4-24.8c-0.6-0.7-1-0.8-1.9-0.3
	c-3.5,2.3-7.2,2.6-11.1,1.4c-1-0.4-1.4-0.2-1.9,0.7c-1.4,2.8-2.8,5.5-4.2,8.3c-7.3,14.3-14.6,28.5-22,42.7c-5,9.7-9.9,19.3-14.9,29
	c-0.4,0.7-0.6,1.3,0.1,2c1.9,2,3.2,4.3,3.7,7C112.1,167.4,112.4,167.6,112.9,167.5z M93,180.2c-0.7,0-0.8,0.6-1.1,1.1
	c-8.7,14.1-17.3,28.1-26,42.2c-6.1,9.9-12.2,19.9-18.3,29.7c-0.4,0.5-0.9,1,0.1,1.7c4.1,2.8,6.1,6.7,5.9,11.7
	c-0.1,1.2,0.2,1.5,1.4,1.8c11.4,2.2,22.7,4.3,34.1,6.6c14.6,2.8,29.3,5.7,43.8,8.6c1.2,0.2,1.4,0,1.8-1c1.2-3.6,3.2-6.8,6.3-8.9
	c1.2-0.8,1.4-1.4,0.8-2.7c-6.9-15.8-13.6-31.7-20.4-47.6c-5.9-13.6-11.7-27.3-17.5-41c-0.4-0.8-0.7-1.3-1.7-1
	c-2.9,0.6-5.8,0.5-8.5-0.8C93.5,180.4,93.2,180.3,93,180.2z M148.5,76c0-0.5-0.3-0.6-0.5-0.8c-0.5-0.5-1.3-0.8-1.6-1.4
	c-0.9-1.4-1.6-1.2-2.9-0.3c-13.7,9.8-27.6,19.5-41.4,29.3c-13.9,9.8-27.9,19.7-41.8,29.5c-1,0.6-1.3,1.2-0.8,2.3c1,2.2,1,4.5,0,6.7
	c-0.5,1.2-0.2,1.6,0.8,2.2c9,5.6,18,11.3,26.9,17c0.9,0.5,1.4,0.7,2.3-0.3c3.9-4.7,10.4-5.9,15.7-3c1.1,0.6,1.4,0.3,2-0.7
	c13.6-26.6,27.3-53.1,41-79.6C148.2,76.5,148.4,76.2,148.5,76z M40.7,251.6c-0.3,0.9,0.3,1.4,1.4,1.3c0.6,0,1.4,0.1,1.9,0.4
	c1.1,0.5,1.6,0.1,2.2-0.9c6.4-10.6,12.9-21.1,19.4-31.5c8.3-13.5,16.6-26.9,24.9-40.4c0.5-0.9,0.6-1.4-0.3-2.1
	c-4.2-3.9-5.5-9.5-3.3-14.8c0.4-0.9,0.2-1.3-0.5-1.7c-3.8-2.3-7.5-4.7-11.2-7c-5.3-3.3-10.8-6.8-16.1-10.1c-0.5-0.3-1-1.1-1.7-0.3
	c-1.8,2-4.2,3-6.8,3.2c-0.9,0.1-1.1,0.5-1.2,1.4c-0.5,5.4-0.9,10.8-1.4,16.2c-0.5,5.8-1,11.7-1.5,17.4c-0.5,5.7-0.9,11.3-1.4,17
	c-0.6,7.2-1.3,14.5-1.9,21.7c-0.4,4.3-0.7,8.6-1.1,12.9C41.8,239.9,41.2,245.6,40.7,251.6z"/>
<path class="st0" d="M41.3,278.9c0.4-0.4,0.9-0.2,1.3-0.3c0,0.5,0.1,0.9,0.1,1.3c-0.1,11.5-0.2,22.9-0.3,34.3c0,7.7,0,15.4,0,23
	c0.5-0.1,1-0.2,1.5-0.4c4-0.8,7.4,0.1,9.9,3.4c2.5,3.3,3,6.9,0.9,10.6c-0.5,0.9,0,1.1,0.5,1.4c15.9,9.1,31.7,18.3,47.6,27.3
	c0.3,0.2,0.7,0.6,1,0.4c0.9-0.8,1.9-1.6,2.6-2.6c0.5-0.5-0.4-1.2-0.6-1.7c-19.2-32.2-38.5-64.4-57.8-96.7c-0.4-0.5-0.8-1-0.8-1.7
	c0.3-0.2,0.5-0.5,0.7-0.6c0.9,0.1,1,1,1.4,1.5c15.6,26.1,31.3,52.2,46.9,78.3c3.8,6.3,7.6,12.6,11.4,19c0.5,0.9,0.9,1.1,1.9,0.5
	c2.1-1,4.4-1.4,6.7-0.9c1.3,0.3,1.9-0.2,2.3-1.4c4.2-11.7,8.4-23.4,12.6-35.1c4.2-11.9,8.6-23.9,12.9-35.7c0.5,0.2,0.9,0.3,1.3,0.5
	c-4.3,12.1-8.7,24.3-13,36.4c-4.2,11.7-8.3,23.2-12.6,34.8c-0.4,1-0.2,1.4,0.7,2c4,2,6.1,5.3,7,9.6c0.2,1.1,0.5,1.3,1.5,1.3
	c13.4,0.1,26.7,0.3,40.1,0.4c14.4,0.2,28.8,0.3,43.2,0.5c1.2,0,1.6-0.2,1.8-1.5c0.3-2.7,1.6-5,3.5-7c0.8-0.9,0.8-1.4,0.1-2.3
	c-16.9-22.6-33.8-45.3-50.8-67.9c-1.6-2.2-3.3-4.3-4.9-6.6c-0.3-0.5-1.3-0.9-0.3-1.6c0.9-0.7,1.1,0.3,1.4,0.7
	c10.7,14.3,21.3,28.5,32,42.7c7.9,10.5,15.7,21.1,23.6,31.6c0.7,1,1.3,1.3,2.4,0.6c4.8-2.6,11.4-1.4,15,2.3
	c4.3,4.6,5.2,10.5,1.9,15.6c-0.8,1.3-0.4,1.4,0.8,1.6c18,3.5,35.9,7.1,53.9,10.7c12,2.4,24.1,4.8,36.1,7.2c0.8,0.2,1.3,0.5,1,1.3
	c-0.3,0.9-0.9,0.3-1.4,0.2c-29.7-5.9-59.5-11.8-89.2-17.7c-1.9-0.4-3.5-0.6-5.2,0.9c-1.5,1.4-3.6,2-5.7,2.3
	c-0.9,0.1-1.2,0.5-1.1,1.3c0.4,6.9,0.7,13.6,1.1,20.5c0.2,4,0.5,7.9,0.5,11.8c0,1.2,0.4,1.7,1.6,1.9c5.1,0.7,8.6,5.8,7.9,10.9
	c-0.7,5.1-5.9,8.9-10.8,8.1c-5.3-0.8-8.6-4.6-8.5-10.1c0-1.1-0.4-1.4-1.3-1.6c-28-7.5-56-14.9-84-22.4c-0.8-0.2-1.4-0.3-2,0.5
	c-2.7,2.6-7.1,2.7-9.8,0.2c-2.9-2.8-3.1-7-0.4-10c0.9-1,0.9-1.5,0.3-2.6c-1.5-2.5-3-5.1-4.4-7.7c-0.5-1-1.2-1.3-2.3-1.3
	c-8,0.3-14-5.7-13.7-13.6c0.1-1.5,0.3-3,1.1-4.2c0.8-1.3,0.3-1.7-0.8-2.3c-13.3-7.6-26.5-15.2-39.7-22.8c-2.5-1.4-5.1-2.9-7.5-4.3
	c-0.7-0.5-1.2-0.5-1.8,0.2c-4.2,3.4-10.2,3.1-13.6-0.8c-3.7-4.3-3.4-9.9,0.8-13.8c0.7-0.6,0.8-1.3,0.8-2.2
	C41,317.6,41.2,298.2,41.3,278.9z M226.8,419.2L226.8,419.2c-0.3-5.4-0.5-10.9-0.8-16.4c0-1-0.3-1.4-1.4-1.6
	c-4.3-0.7-7.5-3.2-9.4-7.1c-0.6-1.3-1.2-1.3-2.3-1c-25.6,7.3-51.1,14.6-76.7,21.9c-1.5,0.5-2.6,0.9-2.2,2.7c0.1,0.4-0.1,0.8-0.3,1.1
	c-0.6,1.1,0.1,1.4,0.9,1.5c6.4,1.7,12.8,3.4,19.3,5.2c21.4,5.7,42.8,11.5,64.2,17.2c1,0.3,1.4,0.2,2-0.8c1.3-2.5,3.3-4.4,6.1-5
	c1.2-0.3,1.4-0.6,1.4-1.7C227.4,430,227.1,424.7,226.8,419.2z M118.3,400.3c1.7,3,3.3,5.8,4.9,8.7c0.5,1.1,1.2,1.4,2.4,1.2
	c3-0.6,5.4,0.4,7,2.9c0.7,1.1,1.3,1.1,2.3,0.8c13.1-3.8,26.2-7.5,39.4-11.3c12.8-3.7,25.6-7.3,38.4-10.9c1.2-0.4,1.4-0.8,1-1.8
	c-0.4-0.6-1.1-0.3-1.6-0.3c-24.9-0.3-49.8-0.5-74.7-0.8c-3,0-5.9-0.1-8.9-0.1c-0.6,0-1,0.1-1.2,0.9
	C126.5,394.8,123.5,398.5,118.3,400.3z"/>
<path class="st0" d="M239.2,140.1c-0.6,0-0.9-0.5-1.2-0.9c7.2-8.3,14.5-16.6,21.6-24.9c10.8-12.4,21.5-24.7,32.3-37
	c0.4-0.5,0.7-0.8,1.1-1.3c-4.2-3.5-6.6-7.8-5.4-13.3c1.4-6.5,6.6-10.8,13.2-10.5c7.2,0.4,12.5,5.8,12.6,12.5c0,1.9-0.1,3.9-1.1,5.6
	c-0.7,1.2-0.3,1.6,0.7,2.3c20.7,13.3,41.3,26.6,62,39.8c9.2,6,18.5,11.9,27.7,17.9c0.9,0.5,1.4,0.6,2.3-0.1
	c3.3-2.3,6.8-2.7,10.3-0.8c3.6,1.9,5.4,5,5.2,9.1c-0.3,4.1-2.4,6.8-6.1,8.5c-3.3,1.5-8.1,0.4-10.6-2.3c-3-3.3-3.8-7.5-1.7-11
	c0.8-1.4,0.4-1.7-0.7-2.4c-29.7-19.2-59.5-38.3-89.3-57.5c-1.1-0.6-1.5-0.8-2.4,0.3c-3.2,3.8-9.1,5.2-14.1,3.2
	c-0.8-0.3-1.3-0.5-1.9,0.4c-18,20.7-36,41.4-54,62.1C239.5,139.8,239.3,139.9,239.2,140.1z"/>
<path class="st0" d="M245.6,156.1c-0.5-0.2-1.2,0.1-1.1-0.8c0.1-1,0.8-0.6,1.3-0.7c16.1,1.7,32.1,3.3,48.2,5.1
	c16.7,1.7,33.4,3.5,50.1,5.3c1.1,0.1,1.4-0.2,1.7-1.1c3-8.8,12.7-12,20.2-6.7c4,2.9,6.1,8.7,4.9,13.4c-1.4,5.3-5.8,9.1-10.9,9.8
	c-8.9,1.2-14.8-6.2-14.7-12.6c0-0.9-0.3-1.2-1.2-1.3c-9.1-0.9-18.3-1.9-27.4-2.9c-8.9-0.9-17.7-1.9-26.6-2.8
	c-8.7-0.9-17.4-1.8-26.1-2.7c-5.8-0.6-11.7-1.3-17.4-1.8c-0.1-0.1-0.2-0.1-0.3,0C246,156.1,245.8,156.1,245.6,156.1z"/>
<path class="st0" d="M165.8,56.9c-0.5,0.1-1,0.4-1.4-0.4c-0.4-0.6,0.1-0.8,0.5-1.1c8.4-3.6,16.8-7.2,25.3-10.9
	c10.9-4.7,21.9-9.5,32.8-14.2c1.1-0.5,1.4-1,1.4-2.2c-0.1-3.6,2.4-6.6,5.8-7c4-0.5,7.1,1.4,8.2,5.2c1,3.3-0.9,7-4.2,8.4
	c-3.1,1.4-6.6,0.4-8.6-2.5c-0.5-0.8-0.9-1-1.9-0.5c-18.9,8.2-37.9,16.4-56.7,24.7C166.6,56.5,166.2,56.7,165.8,56.9z"/>
<path class="st1" d="M246.2,156.1c0.1-0.1,0.2-0.1,0.3,0C246.3,156.1,246.3,156.1,246.2,156.1z"/>
<text transform="matrix(1 0 0 1 225.9529 339.8598)" class="st2 st3 st4">ECF</text>
<text transform="matrix(1 0 0 1 225.9529 339.8598)" class="st0 st3 st4">ECF</text>
</svg>
