<?xml version="1.0" encoding="utf-8"?>
<!-- Generator: Adobe Illustrator 20.0.0, SVG Export Plug-In . SVG Version: 6.00 Build 0)  -->
<svg version="1.1" id="Layer_1" xmlns="http://www.w3.org/2000/svg" xmlns:xlink="http://www.w3.org/1999/xlink" x="0px" y="0px"
	 viewBox="0 0 612 551" style="enable-background:new 0 0 612 551;" xml:space="preserve">
<style type="text/css">
	.st0{fill:#0C0C0C;stroke:#0C0C0C;stroke-width:2;stroke-miterlimit:10;}
	.st1{enable-background:new    ;}
	.st2{fill:#0C0C0C;}
	.st3{fill:none;stroke:#0C0C0C;stroke-miterlimit:10;}
	.st4{stroke:#000000;stroke-width:2;stroke-miterlimit:10;}
	.st5{stroke:#ECF0F1;stroke-width:2;stroke-miterlimit:10;}
	.st6{font-family:'DINAlternate-Bold';}
	.st7{font-size:196.1642px;}
	.st8{stroke:#ECF0F1;stroke-miterlimit:10;}
</style>
<path class="st0" d="M-2009.7,308.3c-6-0.1-10.7-2.5-13.7-7.9c-3.1-5.7-1.9-13.1,4.3-18.3c1.2-0.6,2.5-1.3,3.7-1.8
	c3.3-1.2,3.3-1.2,3.5-4.8c0-0.2,0-0.5,0-0.7c0.5-6.3,1-12.5,1.6-18.8c0.5-6.3,1.2-12.6,1.7-19s1-12.8,1.6-19.2
	c0.7-8.1,1.4-16.1,2.1-24.2c0.4-4.9,0.9-9.9,1.3-14.8c0.4-4.9,0.8-9.8,1.2-14.6c0-0.6,0.3-1.4-0.6-1.7c-1.9-0.5-3.4-1.9-4.9-2.9
	c-1-1.9-2.3-3.6-2.7-5.9c-1.1-6.7,5.3-13.2,12-12.2c2.7,0.4,4.9,1.4,6.6,3.4c0.8,0.9,1.3,0.2,1.8-0.2c7.5-5.3,14.9-10.5,22.4-15.8
	c20.1-14.2,40.2-28.4,60.2-42.5c3.5-2.5,7-5,10.5-7.4c0.7-0.5,1-0.9,0.5-1.9c-3.2-6.6-0.9-13.7,4.3-17.5c5.8-4.4,13.3-3.9,18.6,1
	c0.2,0.2,0.4,0.3,0.6,0.5c-0.4,0.3-0.9,0.5-0.5,1.2c0.4,0.8,0.9,0.5,1.5,0.4c4.1,5,4.1,11.6-0.2,17.2c-0.9,1.2-0.8,1.9,0.1,2.9
	c17.2,20.8,34.3,41.5,51.5,62.3c2.2,2.7,4.5,5.4,6.7,8.1c0.5,0.6,0.8,1.1,1.8,0.5c6.6-3.9,13.2-3.9,19.8-0.1
	c0.1,0.1,0.2,0.1,0.3,0.1c0.3,0.6,0.6,1,1.3,1c4.9,4.2,7.6,9.4,7.3,16c-0.6,0.1-1.4-0.2-1.4,0.8c-0.1,1,0.8,0.7,1.2,0.9
	c-1.6,9-9.1,15.5-18.2,15.8c-2.4,0.1-4.9-0.3-7.1-1.3c-1.3-0.6-1.7-0.2-2.4,0.9c-9.2,15.9-18.5,31.7-27.7,47.5
	c-12.5,21.5-25,43-37.6,64.4c-0.9,1.5-1.1,2.3,0.4,3.8c5.3,4.9,7.9,11.1,6,18.3c-1.9,7.2-6.6,12-13.9,13.9
	c-3.6,0.9-7.1,0.5-10.6-0.5c-0.5-0.2-1-0.3-1.4-0.5c-0.2-0.2-0.3-0.4-0.5-0.5c-6.9-3.8-10.6-9.5-10.4-17.5c0-1.3-0.7-1.4-1.7-1.6
	c-14.8-2.8-29.5-5.7-44.3-8.6c-14.2-2.8-28.5-5.5-42.7-8.3c-0.9-0.2-1.2,0-1.5,0.8c-1.1,2.7-2.9,4.9-5.2,6.7
	c-0.3,0.2-0.5,0.5-0.8,0.7c-1.7,0.4-3.3,1.4-5.1,1.6C-2008.7,308.1-2009.3,307.9-2009.7,308.3z M-1822,172.9
	c-1.5,0.2-2.5,0.3-3.5,0.5c-7.3,0.9-14.5,1.9-21.8,2.8c-8,1-15.9,2-23.9,3c-7.2,0.9-14.4,1.8-21.6,2.8c-7.1,0.9-14.3,1.8-21.4,2.7
	c-5.4,0.7-10.8,1.4-16.2,2.1c-0.8,0.1-1.1,0.4-1.2,1.2c-0.6,4.6-2.8,8.2-6.8,10.6c-1.1,0.6-1.2,1.1-0.7,2.3
	c2.2,4.9,4.3,9.9,6.4,14.8c11.9,27.7,23.8,55.5,35.7,83.2c0.6,1.3,1.1,1.5,2.4,1c4.5-1.5,9.1-1.5,13.4,0.5c1.3,0.6,1.9,0.5,2.6-0.8
	c16.3-28.1,32.7-56.1,49-84.1c5.6-9.5,11.1-19,16.7-28.6c0.5-0.8,0.9-1.4-0.2-2.2c-3.7-2.6-6-6.1-7.3-10.4
	C-1820.7,173.1-1821.2,172.6-1822,172.9z M-1930.5,185c3.8-0.5,7.3-1,10.9-1.4c7.1-0.9,14.3-1.8,21.4-2.7c8.1-1,16.2-2.1,24.3-3.1
	s16.2-2,24.3-3c9.1-1.2,18.2-2.4,27.3-3.5c1.1-0.1,1.5-0.5,1.4-1.5c-0.3-4.3,1.4-8,3.9-11.5c0.8-1.1,2.6-1.9,2.2-3.3
	c-0.3-1.2-1.6-2.2-2.5-3.3c-11.2-13.6-22.5-27.2-33.7-40.8c-7.6-9.2-15.1-18.3-22.6-27.5c-0.7-0.8-1.1-0.9-2.1-0.3
	c-3.9,2.5-8,2.9-12.3,1.5c-1.1-0.4-1.6-0.2-2.1,0.8c-1.5,3.1-3.1,6.1-4.7,9.2c-8.1,15.8-16.2,31.5-24.4,47.3
	c-5.5,10.7-11,21.4-16.5,32.1c-0.4,0.8-0.7,1.4,0.1,2.2c2.1,2.2,3.5,4.8,4.1,7.8C-1931.4,184.9-1931.1,185.1-1930.5,185z
	 M-1952.5,199.1c-0.8,0-0.9,0.7-1.2,1.2c-9.6,15.6-19.2,31.1-28.8,46.7c-6.8,11-13.5,22-20.3,32.9c-0.4,0.6-1,1.1,0.1,1.9
	c4.5,3.1,6.8,7.4,6.5,13c-0.1,1.3,0.2,1.7,1.6,2c12.6,2.4,25.1,4.8,37.7,7.3c16.2,3.1,32.4,6.3,48.5,9.5c1.3,0.2,1.6,0,2-1.1
	c1.3-4,3.5-7.5,7-9.9c1.3-0.9,1.6-1.5,0.9-3c-7.6-17.5-15.1-35.1-22.6-52.7c-6.5-15.1-13-30.2-19.4-45.4c-0.4-0.9-0.8-1.4-1.9-1.1
	c-3.2,0.7-6.4,0.5-9.4-0.9C-1952,199.3-1952.3,199.2-1952.5,199.1z M-1891.1,83.7c0-0.6-0.3-0.7-0.6-0.9c-0.6-0.5-1.4-0.9-1.8-1.5
	c-1-1.5-1.8-1.3-3.2-0.3c-15.2,10.8-30.5,21.6-45.8,32.4c-15.4,10.9-30.9,21.8-46.3,32.7c-1.1,0.7-1.4,1.3-0.9,2.6
	c1.1,2.4,1.1,5,0,7.4c-0.6,1.3-0.2,1.8,0.9,2.4c10,6.2,19.9,12.5,29.8,18.8c1,0.6,1.5,0.8,2.5-0.3c4.3-5.2,11.5-6.5,17.4-3.3
	c1.2,0.7,1.6,0.3,2.2-0.8c15.1-29.4,30.2-58.8,45.4-88.1C-1891.4,84.3-1891.2,84-1891.1,83.7z M-2010.4,278.1
	c-0.3,1,0.3,1.5,1.6,1.4c0.7,0,1.5,0.1,2.1,0.4c1.2,0.6,1.8,0.1,2.4-1c7.1-11.7,14.3-23.3,21.5-34.9c9.2-14.9,18.4-29.8,27.6-44.7
	c0.6-1,0.7-1.5-0.3-2.3c-4.7-4.3-6.1-10.5-3.6-16.4c0.4-1,0.2-1.4-0.6-1.9c-4.2-2.6-8.3-5.2-12.4-7.8c-5.9-3.7-11.9-7.5-17.8-11.2
	c-0.5-0.3-1.1-1.2-1.9-0.3c-2,2.2-4.6,3.3-7.5,3.5c-1,0.1-1.2,0.5-1.3,1.5c-0.5,6-1,11.9-1.5,17.9c-0.6,6.4-1.1,12.9-1.7,19.3
	c-0.5,6.3-1,12.5-1.6,18.8c-0.7,8-1.4,16-2.1,24c-0.4,4.8-0.8,9.5-1.2,14.3C-2009.2,265.1-2009.8,271.4-2010.4,278.1z"/>
<path class="st0" d="M-2009.7,308.3c0.4-0.4,1-0.2,1.4-0.3c0,0.5,0.1,1,0.1,1.4c-0.1,12.7-0.2,25.3-0.3,38c0,8.5,0,17,0,25.4
	c0.6-0.1,1.1-0.2,1.7-0.4c4.4-0.9,8.2,0.1,11,3.8c2.8,3.6,3.3,7.6,1,11.7c-0.6,1,0,1.2,0.6,1.6c17.6,10.1,35.1,20.2,52.7,30.2
	c0.3,0.2,0.8,0.7,1.1,0.4c1-0.9,2.1-1.8,2.9-2.9c0.5-0.6-0.4-1.3-0.7-1.9c-21.2-35.6-42.6-71.3-64-107c-0.4-0.6-0.9-1.1-0.9-1.9
	c0.3-0.2,0.5-0.5,0.8-0.7c1,0.1,1.1,1.1,1.5,1.7c17.3,28.9,34.6,57.8,51.9,86.7c4.2,7,8.4,14,12.6,21c0.6,1,1,1.2,2.1,0.6
	c2.3-1.1,4.9-1.5,7.4-1c1.4,0.3,2.1-0.2,2.6-1.6c4.6-13,9.3-25.9,13.9-38.9c4.7-13.2,9.5-26.4,14.3-39.5c0.5,0.2,1,0.3,1.4,0.5
	c-4.8,13.4-9.6,26.9-14.4,40.3c-4.6,12.9-9.2,25.7-13.9,38.5c-0.4,1.1-0.2,1.6,0.8,2.2c4.4,2.2,6.8,5.9,7.7,10.6
	c0.2,1.2,0.6,1.4,1.7,1.4c14.8,0.1,29.6,0.3,44.4,0.4c15.9,0.2,31.9,0.3,47.8,0.5c1.3,0,1.8-0.2,2-1.7c0.3-3,1.8-5.5,3.9-7.7
	c0.9-1,0.9-1.5,0.1-2.5c-18.7-25-37.4-50.1-56.2-75.1c-1.8-2.4-3.6-4.8-5.4-7.3c-0.3-0.5-1.4-1-0.3-1.8c1-0.8,1.2,0.3,1.6,0.8
	c11.8,15.8,23.6,31.5,35.4,47.3c8.7,11.6,17.4,23.3,26.1,35c0.8,1.1,1.4,1.4,2.7,0.7c5.3-2.9,12.6-1.6,16.6,2.6
	c4.8,5.1,5.7,11.6,2.1,17.3c-0.9,1.4-0.4,1.6,0.9,1.8c19.9,3.9,39.7,7.9,59.6,11.8c13.3,2.7,26.7,5.3,40,8c0.9,0.2,1.4,0.5,1.1,1.4
	c-0.3,1-1,0.3-1.5,0.2c-32.9-6.5-65.8-13.1-98.7-19.6c-2.1-0.4-3.9-0.7-5.7,1c-1.7,1.6-4,2.2-6.3,2.5c-1,0.1-1.3,0.5-1.2,1.4
	c0.4,7.6,0.8,15.1,1.2,22.7c0.2,4.4,0.5,8.7,0.6,13.1c0,1.3,0.4,1.9,1.8,2.1c5.6,0.8,9.5,6.4,8.7,12.1c-0.8,5.6-6.5,9.8-12,9
	c-5.9-0.9-9.5-5.1-9.4-11.2c0-1.2-0.4-1.5-1.4-1.8c-31-8.3-62-16.5-93-24.8c-0.9-0.2-1.5-0.3-2.2,0.5c-3,2.9-7.9,3-10.8,0.2
	c-3.2-3.1-3.4-7.8-0.4-11.1c1-1.1,1-1.7,0.3-2.9c-1.7-2.8-3.3-5.6-4.9-8.5c-0.6-1.1-1.3-1.4-2.5-1.4c-8.8,0.3-15.5-6.3-15.2-15.1
	c0.1-1.7,0.3-3.3,1.2-4.7c0.9-1.4,0.3-1.9-0.9-2.5c-14.7-8.4-29.3-16.8-43.9-25.2c-2.8-1.6-5.6-3.2-8.3-4.8c-0.8-0.5-1.3-0.5-2,0.2
	c-4.7,3.8-11.3,3.4-15-0.9c-4.1-4.8-3.8-11,0.9-15.3c0.8-0.7,0.9-1.4,0.9-2.4C-2010.1,351.1-2009.9,329.7-2009.7,308.3z
	 M-1804.4,463.6L-1804.4,463.6c-0.3-6-0.6-12.1-0.9-18.1c0-1.1-0.3-1.6-1.5-1.8c-4.8-0.8-8.3-3.5-10.4-7.9c-0.7-1.4-1.3-1.4-2.6-1.1
	c-28.3,8.1-56.6,16.2-84.9,24.2c-1.7,0.5-2.9,1-2.4,3c0.1,0.4-0.1,0.9-0.3,1.2c-0.7,1.2,0.1,1.5,1,1.7c7.1,1.9,14.2,3.8,21.4,5.7
	c23.7,6.3,47.4,12.7,71.1,19c1.1,0.3,1.6,0.2,2.2-0.9c1.4-2.8,3.6-4.9,6.8-5.5c1.3-0.3,1.5-0.7,1.5-1.9
	C-1803.8,475.5-1804.1,469.6-1804.4,463.6z M-1924.5,442.7c1.9,3.3,3.7,6.4,5.4,9.6c0.6,1.2,1.3,1.6,2.7,1.3c3.3-0.7,6,0.4,7.8,3.2
	c0.8,1.2,1.4,1.2,2.6,0.9c14.5-4.2,29-8.3,43.6-12.5c14.2-4.1,28.3-8.1,42.5-12.1c1.3-0.4,1.6-0.9,1.1-2c-0.4-0.7-1.2-0.3-1.8-0.3
	c-27.6-0.3-55.1-0.6-82.7-0.9c-3.3,0-6.5-0.1-9.8-0.1c-0.7,0-1.1,0.1-1.3,1C-1915.4,436.6-1918.8,440.6-1924.5,442.7z"/>
<path class="st0" d="M-1790.7,154.7c-0.7,0-1-0.5-1.3-1c8-9.2,16-18.4,23.9-27.6c11.9-13.7,23.8-27.3,35.7-41
	c0.4-0.5,0.8-0.9,1.2-1.4c-4.6-3.9-7.3-8.6-6-14.7c1.5-7.2,7.3-12,14.6-11.6c8,0.4,13.8,6.4,13.9,13.8c0,2.1-0.1,4.3-1.2,6.2
	c-0.8,1.3-0.3,1.8,0.8,2.5c22.9,14.7,45.7,29.4,68.6,44.1c10.2,6.6,20.5,13.2,30.7,19.8c1,0.6,1.6,0.7,2.6-0.1
	c3.6-2.6,7.5-3,11.4-0.9c4,2.1,6,5.5,5.8,10.1c-0.3,4.5-2.7,7.5-6.7,9.4c-3.6,1.7-9,0.4-11.7-2.5c-3.3-3.7-4.2-8.3-1.9-12.2
	c0.9-1.5,0.4-1.9-0.8-2.7c-32.9-21.2-65.9-42.4-98.8-63.6c-1.2-0.7-1.7-0.9-2.7,0.3c-3.5,4.2-10.1,5.7-15.6,3.5
	c-0.9-0.3-1.4-0.5-2.1,0.4c-19.9,22.9-39.8,45.8-59.8,68.7C-1790.4,154.3-1790.6,154.5-1790.7,154.7z"/>
<path class="st0" d="M-1783.6,172.4c-0.5-0.2-1.3,0.1-1.2-0.9c0.1-1.1,0.9-0.7,1.4-0.8c17.8,1.9,35.5,3.7,53.3,5.6
	c18.5,1.9,37,3.9,55.4,5.9c1.2,0.1,1.5-0.2,1.9-1.2c3.3-9.7,14.1-13.3,22.4-7.4c4.4,3.2,6.8,9.6,5.4,14.8
	c-1.6,5.9-6.4,10.1-12.1,10.8c-9.8,1.3-16.4-6.9-16.3-14c0-1-0.3-1.3-1.3-1.4c-10.1-1-20.2-2.1-30.3-3.2c-9.8-1-19.6-2.1-29.4-3.1
	c-9.6-1-19.3-2-28.9-3c-6.4-0.7-12.9-1.4-19.3-2c-0.1-0.1-0.2-0.1-0.3,0C-1783.2,172.4-1783.4,172.4-1783.6,172.4z"/>
<path class="st0" d="M-2007.9,159.6c0.3,1.4-0.4,2.6-0.7,3.9c-7.4,29.6-14.8,59.2-22.2,88.8c-0.2,0.6-0.3,1.3-0.5,2.1
	c2.6-0.2,4.9,0.3,6.8,2.1c3.3,3.3,3.3,7.8,0,11.3c-0.8,0.8-0.7,1.3-0.2,2.1c2.1,3.2,4,6.5,6.1,9.7c0.7,1,0.3,1.5-0.5,1.9
	c-2.4-3-4.2-6.3-6.2-9.6c-1-1.6-1.9-2.5-4.1-2c-3.2,0.7-6.6-1.6-8-5c-1.3-3.2-0.2-7.1,2.7-9c1.2-0.8,1.7-1.7,2-3
	c7.6-30.6,15.3-61.2,22.9-91.8C-2009.4,160.1-2009.3,159.2-2007.9,159.6z"/>
<path class="st0" d="M-1871.9,62.6c-0.5,0.1-1.1,0.4-1.5-0.4c-0.4-0.7,0.1-0.9,0.5-1.2c9.3-4,18.6-8,28-12.1
	c12.1-5.2,24.2-10.5,36.3-15.7c1.2-0.5,1.6-1.1,1.5-2.4c-0.1-4,2.7-7.3,6.4-7.8c4.4-0.6,7.9,1.6,9.1,5.7c1.1,3.6-1,7.7-4.6,9.3
	c-3.4,1.5-7.3,0.4-9.5-2.8c-0.6-0.9-1-1.1-2.1-0.6c-20.9,9.1-41.9,18.2-62.8,27.3C-1871.1,62.2-1871.5,62.4-1871.9,62.6z"/>
<path class="st0" d="M-1783,172.4c0.1-0.1,0.2-0.1,0.3,0C-1782.8,172.4-1782.9,172.4-1783,172.4z"/>
<text transform="matrix(1 0 0 1 -1805.3549 375.7523)" class="st2 st6 st7">ECF</text>
<text transform="matrix(1 0 0 1 -1805.3549 375.7523)" class="st3 st6 st7">ECF</text>
<path class="st4" d="M45.1,308.3c-6-0.1-10.7-2.5-13.7-7.9c-3.1-5.7-1.9-13.1,4.3-18.3c1.2-0.6,2.5-1.3,3.7-1.8
	c3.3-1.2,3.3-1.2,3.5-4.8c0-0.2,0-0.5,0-0.7c0.5-6.3,1-12.5,1.6-18.8c0.5-6.3,1.2-12.6,1.7-19s1-12.8,1.6-19.2
	c0.7-8.1,1.4-16.1,2.1-24.2c0.4-4.9,0.9-9.9,1.3-14.8c0.4-4.9,0.8-9.8,1.2-14.6c0-0.6,0.3-1.4-0.6-1.7c-1.9-0.5-3.4-1.9-4.9-2.9
	c-1-1.9-2.3-3.6-2.7-5.9c-1.1-6.7,5.3-13.2,12-12.2c2.7,0.4,4.9,1.4,6.6,3.4c0.8,0.9,1.3,0.2,1.8-0.2c7.5-5.3,14.9-10.5,22.4-15.8
	c20.1-14.2,40.2-28.4,60.2-42.5c3.5-2.5,7-5,10.5-7.4c0.7-0.5,1-0.9,0.5-1.9c-3.2-6.6-0.9-13.7,4.3-17.5c5.8-4.4,13.3-3.9,18.6,1
	c0.2,0.2,0.4,0.3,0.6,0.5c-0.4,0.3-0.9,0.5-0.5,1.2c0.4,0.8,0.9,0.5,1.5,0.4c4.1,5,4.1,11.6-0.2,17.2c-0.9,1.2-0.8,1.9,0.1,2.9
	c17.2,20.8,34.3,41.5,51.5,62.3c2.2,2.7,4.5,5.4,6.7,8.1c0.5,0.6,0.8,1.1,1.8,0.5c6.6-3.9,13.2-3.9,19.8-0.1
	c0.1,0.1,0.2,0.1,0.3,0.1c0.3,0.6,0.6,1,1.3,1c4.9,4.2,7.6,9.4,7.3,16c-0.6,0.1-1.4-0.2-1.4,0.8c-0.1,1,0.8,0.7,1.2,0.9
	c-1.6,9-9.1,15.5-18.2,15.8c-2.4,0.1-4.9-0.3-7.1-1.3c-1.3-0.6-1.7-0.2-2.4,0.9c-9.2,15.9-18.5,31.7-27.7,47.5
	c-12.5,21.5-25,43-37.6,64.4c-0.9,1.5-1.1,2.3,0.4,3.8c5.3,4.9,7.9,11.1,6,18.3c-1.9,7.2-6.6,12-13.9,13.9
	c-3.6,0.9-7.1,0.5-10.6-0.5c-0.5-0.2-1-0.3-1.4-0.5c-0.2-0.2-0.3-0.4-0.5-0.5c-6.9-3.8-10.6-9.5-10.4-17.5c0-1.3-0.7-1.4-1.7-1.6
	c-14.8-2.8-29.5-5.7-44.3-8.6c-14.2-2.8-28.5-5.5-42.7-8.3c-0.9-0.2-1.2,0-1.5,0.8c-1.1,2.7-2.9,4.9-5.2,6.7
	c-0.3,0.2-0.5,0.5-0.8,0.7c-1.7,0.4-3.3,1.4-5.1,1.6C46.1,308.1,45.5,307.9,45.1,308.3z M232.8,172.9c-1.5,0.2-2.5,0.3-3.5,0.5
	c-7.3,0.9-14.5,1.9-21.8,2.8c-8,1-15.9,2-23.9,3c-7.2,0.9-14.4,1.8-21.6,2.8c-7.1,0.9-14.3,1.8-21.4,2.7c-5.4,0.7-10.8,1.4-16.2,2.1
	c-0.8,0.1-1.1,0.4-1.2,1.2c-0.6,4.6-2.8,8.2-6.8,10.6c-1.1,0.6-1.2,1.1-0.7,2.3c2.2,4.9,4.3,9.9,6.4,14.8
	c11.9,27.7,23.8,55.5,35.7,83.2c0.6,1.3,1.1,1.5,2.4,1c4.5-1.5,9.1-1.5,13.4,0.5c1.3,0.6,1.9,0.5,2.6-0.8
	c16.3-28.1,32.7-56.1,49-84.1c5.6-9.5,11.1-19,16.7-28.6c0.5-0.8,0.9-1.4-0.2-2.2c-3.7-2.6-6-6.1-7.3-10.4
	C234.1,173.1,233.6,172.6,232.8,172.9z M124.3,185c3.8-0.5,7.3-1,10.9-1.4c7.1-0.9,14.3-1.8,21.4-2.7c8.1-1,16.2-2.1,24.3-3.1
	s16.2-2,24.3-3c9.1-1.2,18.2-2.4,27.3-3.5c1.1-0.1,1.5-0.5,1.4-1.5c-0.3-4.3,1.4-8,3.9-11.5c0.8-1.1,2.6-1.9,2.2-3.3
	c-0.3-1.2-1.6-2.2-2.5-3.3c-11.2-13.6-22.5-27.2-33.7-40.8c-7.6-9.2-15.1-18.3-22.6-27.5c-0.7-0.8-1.1-0.9-2.1-0.3
	c-3.9,2.5-8,2.9-12.3,1.5c-1.1-0.4-1.6-0.2-2.1,0.8c-1.5,3.1-3.1,6.1-4.7,9.2c-8.1,15.8-16.2,31.5-24.4,47.3
	c-5.5,10.7-11,21.4-16.5,32.1c-0.4,0.8-0.7,1.4,0.1,2.2c2.1,2.2,3.5,4.8,4.1,7.8C123.4,184.9,123.7,185.1,124.3,185z M102.3,199.1
	c-0.8,0-0.9,0.7-1.2,1.2c-9.6,15.6-19.2,31.1-28.8,46.7c-6.8,11-13.5,22-20.3,32.9c-0.4,0.6-1,1.1,0.1,1.9c4.5,3.1,6.8,7.4,6.5,13
	c-0.1,1.3,0.2,1.7,1.6,2c12.6,2.4,25.1,4.8,37.7,7.3c16.2,3.1,32.4,6.3,48.5,9.5c1.3,0.2,1.6,0,2-1.1c1.3-4,3.5-7.5,7-9.9
	c1.3-0.9,1.6-1.5,0.9-3c-7.6-17.5-15.1-35.1-22.6-52.7c-6.5-15.1-13-30.2-19.4-45.4c-0.4-0.9-0.8-1.4-1.9-1.1
	c-3.2,0.7-6.4,0.5-9.4-0.9C102.8,199.3,102.5,199.2,102.3,199.1z M163.7,83.7c0-0.6-0.3-0.7-0.6-0.9c-0.6-0.5-1.4-0.9-1.8-1.5
	c-1-1.5-1.8-1.3-3.2-0.3c-15.2,10.8-30.5,21.6-45.8,32.4c-15.4,10.9-30.9,21.8-46.3,32.7c-1.1,0.7-1.4,1.3-0.9,2.6
	c1.1,2.4,1.1,5,0,7.4c-0.6,1.3-0.2,1.8,0.9,2.4c10,6.2,19.9,12.5,29.8,18.8c1,0.6,1.5,0.8,2.5-0.3c4.3-5.2,11.5-6.5,17.4-3.3
	c1.2,0.7,1.6,0.3,2.2-0.8c15.1-29.4,30.2-58.8,45.4-88.1C163.4,84.3,163.6,84,163.7,83.7z M44.4,278.1c-0.3,1,0.3,1.5,1.6,1.4
	c0.7,0,1.5,0.1,2.1,0.4c1.2,0.6,1.8,0.1,2.4-1c7.1-11.7,14.3-23.3,21.5-34.9c9.2-14.9,18.4-29.8,27.6-44.7c0.6-1,0.7-1.5-0.3-2.3
	c-4.7-4.3-6.1-10.5-3.6-16.4c0.4-1,0.2-1.4-0.6-1.9c-4.2-2.6-8.3-5.2-12.4-7.8c-5.9-3.7-11.9-7.5-17.8-11.2
	c-0.5-0.3-1.1-1.2-1.9-0.3c-2,2.2-4.6,3.3-7.5,3.5c-1,0.1-1.2,0.5-1.3,1.5c-0.5,6-1,11.9-1.5,17.9c-0.6,6.4-1.1,12.9-1.7,19.3
	c-0.5,6.3-1,12.5-1.6,18.8c-0.7,8-1.4,16-2.1,24c-0.4,4.8-0.8,9.5-1.2,14.3C45.6,265.1,45,271.4,44.4,278.1z"/>
<path class="st4" d="M45.1,308.3c0.4-0.4,1-0.2,1.4-0.3c0,0.5,0.1,1,0.1,1.4c-0.1,12.7-0.2,25.3-0.3,38c0,8.5,0,17,0,25.4
	c0.6-0.1,1.1-0.2,1.7-0.4c4.4-0.9,8.2,0.1,11,3.8c2.8,3.6,3.3,7.6,1,11.7c-0.6,1,0,1.2,0.6,1.6c17.6,10.1,35.1,20.2,52.7,30.2
	c0.3,0.2,0.8,0.7,1.1,0.4c1-0.9,2.1-1.8,2.9-2.9c0.5-0.6-0.4-1.3-0.7-1.9c-21.2-35.6-42.6-71.3-64-107c-0.4-0.6-0.9-1.1-0.9-1.9
	c0.3-0.2,0.5-0.5,0.8-0.7c1,0.1,1.1,1.1,1.5,1.7c17.3,28.9,34.6,57.8,51.9,86.7c4.2,7,8.4,14,12.6,21c0.6,1,1,1.2,2.1,0.6
	c2.3-1.1,4.9-1.5,7.4-1c1.4,0.3,2.1-0.2,2.6-1.6c4.6-13,9.3-25.9,13.9-38.9c4.7-13.2,9.5-26.4,14.3-39.5c0.5,0.2,1,0.3,1.4,0.5
	c-4.8,13.4-9.6,26.9-14.4,40.3c-4.6,12.9-9.2,25.7-13.9,38.5c-0.4,1.1-0.2,1.6,0.8,2.2c4.4,2.2,6.8,5.9,7.7,10.6
	c0.2,1.2,0.6,1.4,1.7,1.4c14.8,0.1,29.6,0.3,44.4,0.4c15.9,0.2,31.9,0.3,47.8,0.5c1.3,0,1.8-0.2,2-1.7c0.3-3,1.8-5.5,3.9-7.7
	c0.9-1,0.9-1.5,0.1-2.5c-18.7-25-37.4-50.1-56.2-75.1c-1.8-2.4-3.6-4.8-5.4-7.3c-0.3-0.5-1.4-1-0.3-1.8c1-0.8,1.2,0.3,1.6,0.8
	c11.8,15.8,23.6,31.5,35.4,47.3c8.7,11.6,17.4,23.3,26.1,35c0.8,1.1,1.4,1.4,2.7,0.7c5.3-2.9,12.6-1.6,16.6,2.6
	c4.8,5.1,5.7,11.6,2.1,17.3c-0.9,1.4-0.4,1.6,0.9,1.8c19.9,3.9,39.7,7.9,59.6,11.8c13.3,2.7,26.7,5.3,40,8c0.9,0.2,1.4,0.5,1.1,1.4
	c-0.3,1-1,0.3-1.5,0.2c-32.9-6.5-65.8-13.1-98.7-19.6c-2.1-0.4-3.9-0.7-5.7,1c-1.7,1.6-4,2.2-6.3,2.5c-1,0.1-1.3,0.5-1.2,1.4
	c0.4,7.6,0.8,15.1,1.2,22.7c0.2,4.4,0.5,8.7,0.6,13.1c0,1.3,0.4,1.9,1.8,2.1c5.6,0.8,9.5,6.4,8.7,12.1c-0.8,5.6-6.5,9.8-12,9
	c-5.9-0.9-9.5-5.1-9.4-11.2c0-1.2-0.4-1.5-1.4-1.8c-31-8.3-62-16.5-93-24.8c-0.9-0.2-1.5-0.3-2.2,0.5c-3,2.9-7.9,3-10.8,0.2
	c-3.2-3.1-3.4-7.8-0.4-11.1c1-1.1,1-1.7,0.3-2.9c-1.7-2.8-3.3-5.6-4.9-8.5c-0.6-1.1-1.3-1.4-2.5-1.4c-8.8,0.3-15.5-6.3-15.2-15.1
	c0.1-1.7,0.3-3.3,1.2-4.7c0.9-1.4,0.3-1.9-0.9-2.5c-14.7-8.4-29.3-16.8-43.9-25.2c-2.8-1.6-5.6-3.2-8.3-4.8c-0.8-0.5-1.3-0.5-2,0.2
	c-4.7,3.8-11.3,3.4-15-0.9c-4.1-4.8-3.8-11,0.9-15.3c0.8-0.7,0.9-1.4,0.9-2.4C44.7,351.1,44.9,329.7,45.1,308.3z M250.4,463.6
	L250.4,463.6c-0.3-6-0.6-12.1-0.9-18.1c0-1.1-0.3-1.6-1.5-1.8c-4.8-0.8-8.3-3.5-10.4-7.9c-0.7-1.4-1.3-1.4-2.6-1.1
	c-28.3,8.1-56.6,16.2-84.9,24.2c-1.7,0.5-2.9,1-2.4,3c0.1,0.4-0.1,0.9-0.3,1.2c-0.7,1.2,0.1,1.5,1,1.7c7.1,1.9,14.2,3.8,21.4,5.7
	c23.7,6.3,47.4,12.7,71.1,19c1.1,0.3,1.6,0.2,2.2-0.9c1.4-2.8,3.6-4.9,6.8-5.5c1.3-0.3,1.5-0.7,1.5-1.9
	C251,475.5,250.7,469.6,250.4,463.6z M130.3,442.7c1.9,3.3,3.7,6.4,5.4,9.6c0.6,1.2,1.3,1.6,2.7,1.3c3.3-0.7,6,0.4,7.8,3.2
	c0.8,1.2,1.4,1.2,2.6,0.9c14.5-4.2,29-8.3,43.6-12.5c14.2-4.1,28.3-8.1,42.5-12.1c1.3-0.4,1.6-0.9,1.1-2c-0.4-0.7-1.2-0.3-1.8-0.3
	c-27.6-0.3-55.1-0.6-82.7-0.9c-3.3,0-6.5-0.1-9.8-0.1c-0.7,0-1.1,0.1-1.3,1C139.4,436.6,136,440.6,130.3,442.7z"/>
<path class="st4" d="M264.1,154.7c-0.7,0-1-0.5-1.3-1c8-9.2,16-18.4,23.9-27.6c11.9-13.7,23.8-27.3,35.7-41c0.4-0.5,0.8-0.9,1.2-1.4
	c-4.6-3.9-7.3-8.6-6-14.7c1.5-7.2,7.3-12,14.6-11.6c8,0.4,13.8,6.4,13.9,13.8c0,2.1-0.1,4.3-1.2,6.2c-0.8,1.3-0.3,1.8,0.8,2.5
	c22.9,14.7,45.7,29.4,68.6,44.1c10.2,6.6,20.5,13.2,30.7,19.8c1,0.6,1.6,0.7,2.6-0.1c3.6-2.6,7.5-3,11.4-0.9c4,2.1,6,5.5,5.8,10.1
	c-0.3,4.5-2.7,7.5-6.7,9.4c-3.6,1.7-9,0.4-11.7-2.5c-3.3-3.7-4.2-8.3-1.9-12.2c0.9-1.5,0.4-1.9-0.8-2.7
	c-32.9-21.2-65.9-42.4-98.8-63.6c-1.2-0.7-1.7-0.9-2.7,0.3c-3.5,4.2-10.1,5.7-15.6,3.5c-0.9-0.3-1.4-0.5-2.1,0.4
	c-19.9,22.9-39.8,45.8-59.8,68.7C264.4,154.3,264.2,154.5,264.1,154.7z"/>
<path class="st4" d="M271.2,172.4c-0.5-0.2-1.3,0.1-1.2-0.9c0.1-1.1,0.9-0.7,1.4-0.8c17.8,1.9,35.5,3.7,53.3,5.6
	c18.5,1.9,37,3.9,55.4,5.9c1.2,0.1,1.5-0.2,1.9-1.2c3.3-9.7,14.1-13.3,22.4-7.4c4.4,3.2,6.8,9.6,5.4,14.8
	c-1.6,5.9-6.4,10.1-12.1,10.8c-9.8,1.3-16.4-6.9-16.3-14c0-1-0.3-1.3-1.3-1.4c-10.1-1-20.2-2.1-30.3-3.2c-9.8-1-19.6-2.1-29.4-3.1
	c-9.6-1-19.3-2-28.9-3c-6.4-0.7-12.9-1.4-19.3-2c-0.1-0.1-0.2-0.1-0.3,0C271.6,172.4,271.4,172.4,271.2,172.4z"/>
<path class="st4" d="M46.9,159.6c0.3,1.4-0.4,2.6-0.7,3.9c-7.4,29.6-14.8,59.2-22.2,88.8c-0.2,0.6-0.3,1.3-0.5,2.1
	c2.6-0.2,4.9,0.3,6.8,2.1c3.3,3.3,3.3,7.8,0,11.3c-0.8,0.8-0.7,1.3-0.2,2.1c2.1,3.2,4,6.5,6.1,9.7c0.7,1,0.3,1.5-0.5,1.9
	c-2.4-3-4.2-6.3-6.2-9.6c-1-1.6-1.9-2.5-4.1-2c-3.2,0.7-6.6-1.6-8-5c-1.3-3.2-0.2-7.1,2.7-9c1.2-0.8,1.7-1.7,2-3
	c7.6-30.6,15.3-61.2,22.9-91.8C45.4,160.1,45.5,159.2,46.9,159.6z"/>
<path class="st4" d="M182.9,62.6c-0.5,0.1-1.1,0.4-1.5-0.4c-0.4-0.7,0.1-0.9,0.5-1.2c9.3-4,18.6-8,28-12.1
	c12.1-5.2,24.2-10.5,36.3-15.7c1.2-0.5,1.6-1.1,1.5-2.4c-0.1-4,2.7-7.3,6.4-7.8c4.4-0.6,7.9,1.6,9.1,5.7c1.1,3.6-1,7.7-4.6,9.3
	c-3.4,1.5-7.3,0.4-9.5-2.8c-0.6-0.9-1-1.1-2.1-0.6c-20.9,9.1-41.9,18.2-62.8,27.3C183.7,62.2,183.3,62.4,182.9,62.6z"/>
<path class="st5" d="M271.8,172.4c0.1-0.1,0.2-0.1,0.3,0C272,172.4,271.9,172.4,271.8,172.4z"/>
<text transform="matrix(1 0 0 1 249.418 375.7523)" class="st6 st7">ECF</text>
<text transform="matrix(1 0 0 1 249.418 375.7523)" class="st8 st6 st7">ECF</text>
</svg>
