<?xml version="1.0" encoding="utf-8"?>
<!-- Generator: Adobe Illustrator 20.0.0, SVG Export Plug-In . SVG Version: 6.00 Build 0)  -->
<svg version="1.1" id="Layer_1" xmlns="http://www.w3.org/2000/svg" xmlns:xlink="http://www.w3.org/1999/xlink" x="0px" y="0px"
	 viewBox="0 0 100 84.5" style="enable-background:new 0 0 100 84.5;" xml:space="preserve">
<style type="text/css">
	.st0{stroke:#000000;stroke-width:0.75;stroke-miterlimit:10;}
</style>
<g>
	<path class="st0" d="M6.5,49.8c-1,0-1.8-0.4-2.3-1.4c-0.5-1-0.3-2.2,0.7-3.1C5.1,45.2,5.3,45,5.5,45c0.6-0.2,0.6-0.2,0.6-0.8
		c0,0,0-0.1,0-0.1c0.1-1.1,0.2-2.1,0.3-3.2c0.1-1.1,0.2-2.2,0.3-3.3c0.1-1.1,0.2-2.2,0.3-3.3c0.1-1.4,0.2-2.8,0.4-4.1
		c0.1-0.8,0.2-1.7,0.2-2.5c0.1-0.8,0.1-1.7,0.2-2.5c0-0.1,0.1-0.2-0.1-0.3c-0.3-0.1-0.6-0.3-0.8-0.5c-0.2-0.3-0.4-0.6-0.5-1
		c-0.2-1.1,0.9-2.3,2.1-2.1c0.5,0.1,0.8,0.2,1.1,0.6c0.1,0.2,0.2,0,0.3,0c1.3-0.9,2.6-1.8,3.8-2.7c3.4-2.4,6.9-4.9,10.3-7.3
		c0.6-0.4,1.2-0.9,1.8-1.3c0.1-0.1,0.2-0.2,0.1-0.3c-0.5-1.1-0.2-2.3,0.7-3c1-0.8,2.3-0.7,3.2,0.2c0,0,0.1,0.1,0.1,0.1
		c-0.1,0.1-0.2,0.1-0.1,0.2c0.1,0.1,0.2,0.1,0.3,0.1c0.7,0.9,0.7,2,0,2.9c-0.2,0.2-0.1,0.3,0,0.5c2.9,3.6,5.9,7.1,8.8,10.7
		c0.4,0.5,0.8,0.9,1.1,1.4c0.1,0.1,0.1,0.2,0.3,0.1c1.1-0.7,2.3-0.7,3.4,0c0,0,0,0,0.1,0c0.1,0.1,0.1,0.2,0.2,0.2
		c0.8,0.7,1.3,1.6,1.3,2.7c-0.1,0-0.2,0-0.2,0.1c0,0.2,0.1,0.1,0.2,0.2c-0.3,1.5-1.6,2.7-3.1,2.7c-0.4,0-0.8-0.1-1.2-0.2
		c-0.2-0.1-0.3,0-0.4,0.2c-1.6,2.7-3.2,5.4-4.7,8.1c-2.1,3.7-4.3,7.4-6.4,11c-0.2,0.3-0.2,0.4,0.1,0.7c0.9,0.8,1.4,1.9,1,3.1
		c-0.3,1.2-1.1,2.1-2.4,2.4c-0.6,0.2-1.2,0.1-1.8-0.1c-0.1,0-0.2-0.1-0.2-0.1c0,0-0.1-0.1-0.1-0.1c-1.2-0.7-1.8-1.6-1.8-3
		c0-0.2-0.1-0.2-0.3-0.3c-2.5-0.5-5.1-1-7.6-1.5c-2.4-0.5-4.9-0.9-7.3-1.4c-0.2,0-0.2,0-0.3,0.1c-0.2,0.5-0.5,0.8-0.9,1.1
		c-0.1,0-0.1,0.1-0.1,0.1c-0.3,0.1-0.6,0.2-0.9,0.3C6.7,49.7,6.6,49.7,6.5,49.8z M38.6,26.6c-0.3,0-0.4,0.1-0.6,0.1
		c-1.3,0.2-2.5,0.3-3.7,0.5c-1.4,0.2-2.7,0.3-4.1,0.5c-1.2,0.2-2.5,0.3-3.7,0.5c-1.2,0.2-2.4,0.3-3.7,0.5c-0.9,0.1-1.8,0.2-2.8,0.4
		c-0.1,0-0.2,0.1-0.2,0.2c-0.1,0.8-0.5,1.4-1.2,1.8c-0.2,0.1-0.2,0.2-0.1,0.4c0.4,0.8,0.7,1.7,1.1,2.5c2,4.7,4.1,9.5,6.1,14.2
		c0.1,0.2,0.2,0.3,0.4,0.2c0.8-0.3,1.6-0.3,2.3,0.1c0.2,0.1,0.3,0.1,0.4-0.1c2.8-4.8,5.6-9.6,8.4-14.4c1-1.6,1.9-3.3,2.9-4.9
		c0.1-0.1,0.2-0.2,0-0.4c-0.6-0.4-1-1-1.3-1.8C38.9,26.6,38.8,26.5,38.6,26.6z M20,28.6c0.7-0.1,1.3-0.2,1.9-0.2
		c1.2-0.2,2.4-0.3,3.7-0.5c1.4-0.2,2.8-0.4,4.2-0.5s2.8-0.3,4.2-0.5c1.6-0.2,3.1-0.4,4.7-0.6c0.2,0,0.3-0.1,0.2-0.3
		c-0.1-0.7,0.2-1.4,0.7-2c0.1-0.2,0.4-0.3,0.4-0.6c-0.1-0.2-0.3-0.4-0.4-0.6c-1.9-2.3-3.9-4.7-5.8-7c-1.3-1.6-2.6-3.1-3.9-4.7
		c-0.1-0.1-0.2-0.2-0.4-0.1c-0.7,0.4-1.4,0.5-2.1,0.3c-0.2-0.1-0.3,0-0.4,0.1c-0.3,0.5-0.5,1-0.8,1.6c-1.4,2.7-2.8,5.4-4.2,8.1
		c-0.9,1.8-1.9,3.7-2.8,5.5c-0.1,0.1-0.1,0.2,0,0.4c0.4,0.4,0.6,0.8,0.7,1.3C19.9,28.6,19.9,28.7,20,28.6z M16.3,31.1
		c-0.1,0-0.2,0.1-0.2,0.2c-1.6,2.7-3.3,5.3-4.9,8C10,41.1,8.8,43,7.7,44.9c-0.1,0.1-0.2,0.2,0,0.3c0.8,0.5,1.2,1.3,1.1,2.2
		c0,0.2,0,0.3,0.3,0.3c2.2,0.4,4.3,0.8,6.5,1.3c2.8,0.5,5.5,1.1,8.3,1.6c0.2,0,0.3,0,0.3-0.2c0.2-0.7,0.6-1.3,1.2-1.7
		c0.2-0.2,0.3-0.3,0.2-0.5c-1.3-3-2.6-6-3.9-9c-1.1-2.6-2.2-5.2-3.3-7.8c-0.1-0.2-0.1-0.2-0.3-0.2c-0.5,0.1-1.1,0.1-1.6-0.2
		C16.4,31.1,16.3,31.1,16.3,31.1z M26.8,11.3c0-0.1-0.1-0.1-0.1-0.2c-0.1-0.1-0.2-0.2-0.3-0.3c-0.2-0.3-0.3-0.2-0.5-0.1
		c-2.6,1.8-5.2,3.7-7.8,5.5c-2.6,1.9-5.3,3.7-7.9,5.6c-0.2,0.1-0.2,0.2-0.2,0.4c0.2,0.4,0.2,0.9,0,1.3c-0.1,0.2,0,0.3,0.2,0.4
		c1.7,1.1,3.4,2.1,5.1,3.2c0.2,0.1,0.3,0.1,0.4-0.1c0.7-0.9,2-1.1,3-0.6c0.2,0.1,0.3,0.1,0.4-0.1c2.6-5,5.2-10.1,7.8-15.1
		C26.7,11.4,26.8,11.3,26.8,11.3z M6.4,44.6c-0.1,0.2,0.1,0.3,0.3,0.2c0.1,0,0.3,0,0.4,0.1c0.2,0.1,0.3,0,0.4-0.2c1.2-2,2.4-4,3.7-6
		c1.6-2.6,3.2-5.1,4.7-7.7c0.1-0.2,0.1-0.3-0.1-0.4c-0.8-0.7-1-1.8-0.6-2.8c0.1-0.2,0-0.2-0.1-0.3c-0.7-0.4-1.4-0.9-2.1-1.3
		c-1-0.6-2-1.3-3-1.9c-0.1-0.1-0.2-0.2-0.3-0.1c-0.3,0.4-0.8,0.6-1.3,0.6c-0.2,0-0.2,0.1-0.2,0.3c-0.1,1-0.2,2-0.3,3.1
		c-0.1,1.1-0.2,2.2-0.3,3.3c-0.1,1.1-0.2,2.1-0.3,3.2c-0.1,1.4-0.2,2.7-0.4,4.1c-0.1,0.8-0.1,1.6-0.2,2.4
		C6.6,42.4,6.5,43.4,6.4,44.6z"/>
	<path class="st0" d="M6.5,49.8c0.1-0.1,0.2,0,0.2-0.1c0,0.1,0,0.2,0,0.2c0,2.2,0,4.3-0.1,6.5c0,1.5,0,2.9,0,4.3
		c0.1,0,0.2,0,0.3-0.1c0.8-0.2,1.4,0,1.9,0.7c0.5,0.6,0.6,1.3,0.2,2c-0.1,0.2,0,0.2,0.1,0.3c3,1.7,6,3.5,9,5.2
		c0.1,0,0.1,0.1,0.2,0.1c0.2-0.2,0.4-0.3,0.5-0.5c0.1-0.1-0.1-0.2-0.1-0.3c-3.6-6.1-7.3-12.2-11-18.3c-0.1-0.1-0.2-0.2-0.2-0.3
		c0.1,0,0.1-0.1,0.1-0.1c0.2,0,0.2,0.2,0.3,0.3c3,4.9,5.9,9.9,8.9,14.8c0.7,1.2,1.4,2.4,2.2,3.6c0.1,0.2,0.2,0.2,0.4,0.1
		c0.4-0.2,0.8-0.3,1.3-0.2c0.2,0.1,0.4,0,0.4-0.3c0.8-2.2,1.6-4.4,2.4-6.7c0.8-2.3,1.6-4.5,2.4-6.8c0.1,0,0.2,0.1,0.2,0.1
		c-0.8,2.3-1.6,4.6-2.5,6.9c-0.8,2.2-1.6,4.4-2.4,6.6c-0.1,0.2,0,0.3,0.1,0.4c0.8,0.4,1.2,1,1.3,1.8c0,0.2,0.1,0.2,0.3,0.2
		c2.5,0,5.1,0.1,7.6,0.1c2.7,0,5.5,0.1,8.2,0.1c0.2,0,0.3,0,0.3-0.3c0.1-0.5,0.3-0.9,0.7-1.3c0.2-0.2,0.2-0.3,0-0.4
		c-3.2-4.3-6.4-8.6-9.6-12.9c-0.3-0.4-0.6-0.8-0.9-1.3c-0.1-0.1-0.2-0.2-0.1-0.3c0.2-0.1,0.2,0.1,0.3,0.1c2,2.7,4,5.4,6.1,8.1
		c1.5,2,3,4,4.5,6c0.1,0.2,0.2,0.2,0.5,0.1c0.9-0.5,2.2-0.3,2.8,0.4c0.8,0.9,1,2,0.4,3C43.6,72,43.7,72,43.9,72
		c3.4,0.7,6.8,1.4,10.2,2c2.3,0.5,4.6,0.9,6.9,1.4c0.2,0,0.2,0.1,0.2,0.2c-0.1,0.2-0.2,0.1-0.3,0c-5.6-1.1-11.3-2.2-16.9-3.4
		c-0.4-0.1-0.7-0.1-1,0.2c-0.3,0.3-0.7,0.4-1.1,0.4c-0.2,0-0.2,0.1-0.2,0.2c0.1,1.3,0.1,2.6,0.2,3.9c0,0.8,0.1,1.5,0.1,2.2
		c0,0.2,0.1,0.3,0.3,0.4c1,0.1,1.6,1.1,1.5,2.1c-0.1,1-1.1,1.7-2.1,1.5c-1-0.2-1.6-0.9-1.6-1.9c0-0.2-0.1-0.3-0.2-0.3
		c-5.3-1.4-10.6-2.8-15.9-4.2c-0.2,0-0.3-0.1-0.4,0.1c-0.5,0.5-1.4,0.5-1.8,0c-0.5-0.5-0.6-1.3-0.1-1.9c0.2-0.2,0.2-0.3,0.1-0.5
		c-0.3-0.5-0.6-1-0.8-1.5c-0.1-0.2-0.2-0.2-0.4-0.2c-1.5,0.1-2.7-1.1-2.6-2.6c0-0.3,0.1-0.6,0.2-0.8c0.2-0.2,0.1-0.3-0.2-0.4
		c-2.5-1.4-5-2.9-7.5-4.3c-0.5-0.3-1-0.5-1.4-0.8c-0.1-0.1-0.2-0.1-0.3,0c-0.8,0.7-1.9,0.6-2.6-0.2c-0.7-0.8-0.7-1.9,0.2-2.6
		c0.1-0.1,0.2-0.2,0.2-0.4C6.4,57.1,6.5,53.4,6.5,49.8z M41.6,76.3L41.6,76.3c-0.1-1-0.1-2.1-0.2-3.1c0-0.2-0.1-0.3-0.3-0.3
		c-0.8-0.1-1.4-0.6-1.8-1.4c-0.1-0.2-0.2-0.2-0.4-0.2c-4.8,1.4-9.7,2.8-14.5,4.1c-0.3,0.1-0.5,0.2-0.4,0.5c0,0.1,0,0.2-0.1,0.2
		c-0.1,0.2,0,0.3,0.2,0.3c1.2,0.3,2.4,0.7,3.7,1c4.1,1.1,8.1,2.2,12.2,3.3c0.2,0.1,0.3,0,0.4-0.2c0.2-0.5,0.6-0.8,1.2-0.9
		c0.2-0.1,0.3-0.1,0.3-0.3C41.7,78.4,41.7,77.4,41.6,76.3z M21.1,72.8c0.3,0.6,0.6,1.1,0.9,1.6c0.1,0.2,0.2,0.3,0.5,0.2
		c0.6-0.1,1,0.1,1.3,0.5c0.1,0.2,0.2,0.2,0.4,0.2c2.5-0.7,5-1.4,7.5-2.1c2.4-0.7,4.8-1.4,7.3-2.1c0.2-0.1,0.3-0.2,0.2-0.3
		c-0.1-0.1-0.2-0.1-0.3-0.1c-4.7-0.1-9.4-0.1-14.2-0.2c-0.6,0-1.1,0-1.7,0c-0.1,0-0.2,0-0.2,0.2C22.6,71.7,22.1,72.4,21.1,72.8z"/>
	<path class="st0" d="M44,23.4c-0.1,0-0.2-0.1-0.2-0.2c1.4-1.6,2.7-3.2,4.1-4.7c2-2.3,4.1-4.7,6.1-7c0.1-0.1,0.1-0.2,0.2-0.2
		c-0.8-0.7-1.3-1.5-1-2.5c0.3-1.2,1.3-2.1,2.5-2C57,6.9,58,7.9,58,9.1c0,0.4,0,0.7-0.2,1.1c-0.1,0.2-0.1,0.3,0.1,0.4
		c3.9,2.5,7.8,5,11.7,7.6c1.7,1.1,3.5,2.3,5.3,3.4c0.2,0.1,0.3,0.1,0.4,0c0.6-0.4,1.3-0.5,2-0.2c0.7,0.4,1,0.9,1,1.7
		c-0.1,0.8-0.5,1.3-1.1,1.6c-0.6,0.3-1.5,0.1-2-0.4c-0.6-0.6-0.7-1.4-0.3-2.1c0.2-0.3,0.1-0.3-0.1-0.5c-5.6-3.6-11.3-7.3-16.9-10.9
		c-0.2-0.1-0.3-0.2-0.5,0.1c-0.6,0.7-1.7,1-2.7,0.6c-0.2-0.1-0.2-0.1-0.4,0.1c-3.4,3.9-6.8,7.8-10.2,11.8C44,23.4,44,23.4,44,23.4z"
		/>
	<path class="st0" d="M45.2,26.5c-0.1,0-0.2,0-0.2-0.2c0-0.2,0.2-0.1,0.2-0.1c3,0.3,6.1,0.6,9.1,1c3.2,0.3,6.3,0.7,9.5,1
		c0.2,0,0.3,0,0.3-0.2c0.6-1.7,2.4-2.3,3.8-1.3c0.8,0.5,1.2,1.6,0.9,2.5c-0.3,1-1.1,1.7-2.1,1.8c-1.7,0.2-2.8-1.2-2.8-2.4
		c0-0.2-0.1-0.2-0.2-0.2c-1.7-0.2-3.5-0.4-5.2-0.5c-1.7-0.2-3.4-0.4-5-0.5c-1.6-0.2-3.3-0.3-4.9-0.5c-1.1-0.1-2.2-0.2-3.3-0.3
		c0,0,0,0-0.1,0C45.3,26.5,45.2,26.5,45.2,26.5z"/>
	<path class="st0" d="M6.8,24.3c0.1,0.2-0.1,0.4-0.1,0.7C5.4,30,4.1,35.1,2.9,40.2c0,0.1-0.1,0.2-0.1,0.4c0.4,0,0.8,0.1,1.2,0.4
		c0.6,0.6,0.6,1.3,0,1.9c-0.1,0.1-0.1,0.2,0,0.4c0.4,0.5,0.7,1.1,1,1.7C5.1,45,5,45.1,4.9,45.2c-0.4-0.5-0.7-1.1-1.1-1.6
		c-0.2-0.3-0.3-0.4-0.7-0.3c-0.5,0.1-1.1-0.3-1.4-0.9c-0.2-0.5,0-1.2,0.5-1.5c0.2-0.1,0.3-0.3,0.3-0.5C3.8,35,5.2,29.8,6.5,24.5
		C6.5,24.4,6.6,24.2,6.8,24.3z"/>
	<path class="st0" d="M30.1,7.7c-0.1,0-0.2,0.1-0.3-0.1c-0.1-0.1,0-0.2,0.1-0.2c1.6-0.7,3.2-1.4,4.8-2.1c2.1-0.9,4.1-1.8,6.2-2.7
		c0.2-0.1,0.3-0.2,0.3-0.4c0-0.7,0.5-1.3,1.1-1.3c0.8-0.1,1.4,0.3,1.6,1C44,2.5,43.7,3.2,43,3.5c-0.6,0.3-1.3,0.1-1.6-0.5
		c-0.1-0.2-0.2-0.2-0.4-0.1C37.5,4.4,33.9,6,30.3,7.6C30.2,7.6,30.2,7.6,30.1,7.7z"/>
	<path class="st0" d="M45.3,26.5C45.3,26.5,45.3,26.5,45.3,26.5C45.3,26.5,45.3,26.5,45.3,26.5z"/>
	<g>
		<path d="M40.3,59.3V35.5h16v4.8H45.8v4.5h9.9v4.6h-9.9v4.9h11v4.9L40.3,59.3L40.3,59.3z"/>
		<path d="M77.7,58.9c-1.5,0.7-3.3,1.1-5.3,1.1c-1.8,0-3.5-0.3-5.1-0.9s-2.9-1.5-4-2.6c-1.1-1.1-2-2.4-2.7-4c-0.7-1.5-1-3.3-1-5.1
			c0-1.9,0.3-3.6,1-5.2c0.7-1.5,1.6-2.9,2.7-3.9c1.2-1.1,2.5-1.9,4.1-2.5c1.6-0.6,3.3-0.9,5.1-0.9c1.7,0,3.3,0.3,4.9,0.9
			c1.6,0.6,2.9,1.5,3.9,2.6l-3.9,3.9c-0.5-0.7-1.3-1.3-2.1-1.6s-1.8-0.5-2.7-0.5c-1,0-1.9,0.2-2.8,0.5s-1.6,0.9-2.2,1.5
			c-0.6,0.7-1.1,1.4-1.4,2.3c-0.3,0.9-0.5,1.8-0.5,2.9c0,1.1,0.2,2.1,0.5,3c0.3,0.9,0.8,1.7,1.4,2.3c0.6,0.6,1.3,1.1,2.1,1.5
			c0.8,0.4,1.7,0.5,2.7,0.5c1.1,0,2.1-0.2,3-0.7c0.9-0.4,1.5-1,2.1-1.7l4,3.8C80.5,57.2,79.2,58.2,77.7,58.9z"/>
		<path d="M89.7,40.4v4.9h9.2v4.7h-9.2v9.2H84V35.5h15.7v4.9L89.7,40.4L89.7,40.4z"/>
	</g>
</g>
</svg>
