<?xml version="1.0" encoding="utf-8"?>
<!-- Generator: Adobe Illustrator 20.0.0, SVG Export Plug-In . SVG Version: 6.00 Build 0)  -->
<svg version="1.1" id="Layer_1" xmlns="http://www.w3.org/2000/svg" xmlns:xlink="http://www.w3.org/1999/xlink" x="0px" y="0px"
	 viewBox="0 0 90 85.9" style="enable-background:new 0 0 90 85.9;" xml:space="preserve">
<style type="text/css">
	.st0{fill:#FFFFFF;}
	.st1{fill:#009FE3;}
</style>
<g>
	<g>
		<path class="st0" d="M56.3,81.6c0,3-0.2,3.7-3,3.7c-2.7,0-3-0.7-3-3.7v-3h2.6v3.9c0,0.4,0.1,0.7,0.4,0.7s0.4-0.2,0.4-0.7V78
			c0-0.4-0.1-0.5-0.4-0.5h-1.1v-2.2h1.1c0.3,0,0.4-0.2,0.4-0.5v-6.3c0-0.4,0-0.7-0.4-0.7s-0.4,0.3-0.4,0.7v5.7h-2.6v-4.6
			c0-3,0.2-3.7,3.1-3.7c2.7,0,2.9,0.8,2.9,3.7v4.3c0,1.5-0.2,2.3-1.2,2.6c1,0.3,1.2,1,1.2,2.6C56.3,79,56.3,81.6,56.3,81.6z"/>
	</g>
	<g>
		<path class="st0" d="M61.2,62.3c2.5,0,2.7,0.9,2.7,3.9v11.5c0,2.9-0.2,3.9-2.7,3.9h-3.5V62.3H61.2z M60.3,79.5h0.2
			c0.7,0,0.7-0.2,0.7-1v-0.1v-13v-0.1c0-0.7,0-1-0.7-1h-0.2V79.5z"/>
	</g>
</g>
<g>
	<path class="st0" d="M68.4,59.3v23.2h2.1v2.7h-5.8V59.3H68.4z"/>
	<path class="st0" d="M75.2,59.3v25.9h-3.6V59.3H75.2z"/>
	<path class="st0" d="M82.8,59.3V62h-2.2v7.6h2.2v2.7h-2.2v12.8H77V59.3H82.8z"/>
	<path class="st0" d="M90,59.3V62h-2.1v7.6H90v2.7h-2.1v10.1H90v2.7h-5.8V59.3H90z"/>
</g>
<g>
	<path class="st0" d="M38.2,0c1.2,0,1.7,0.4,1.8,0.9c0.2,0.5,0.2,1.1,0.4,2.9L40.9,9c0.1,1.3,0,1.8-0.4,2.3
		c-0.4,0.5-1.1,0.8-2.3,0.8h-0.9v7.1h-2.6V0H38.2z M37.4,10.1h0.2c0.7,0,0.7-0.3,0.7-1V9l-0.5-6.2l0-0.5c0-0.1,0-0.2-0.1-0.3h-0.2
		V10.1z"/>
	<path class="st0" d="M44.9,10.1l-0.3-4.2c0-0.1,0-0.2,0-0.3c0-0.2,0-0.3-0.2-0.3c-0.2,0-0.2,0-0.2,0.2v13.7h-2.2V3.6h2.2
		c1,0.1,2.3,0,2.6,1.8l0.4,4.7L44.9,10.1L44.9,10.1z"/>
	<path class="st0" d="M50.3,3.6v15.7h-2.2V3.6H50.3z"/>
	<path class="st0" d="M56.7,5.9l0,13.3h-2.2l0-13.4V5.6c0-0.3-0.2-0.3-0.4-0.3c-0.3,0-0.3,0-0.3,0.3v13.6h-2.2V3.5
		c1.4,0,2.5,0,2.8,0C55.7,3.5,56.7,4.1,56.7,5.9z"/>
	<path class="st0" d="M60.4,3.4v2.9h0.9v1.4h-0.9v9.5c0,0.5,0.1,0.5,0.8,0.5h0.1v1.4h-0.7c-2.1,0-2.5-0.4-2.5-2.2V7.8h-0.5V6.3h0.5
		V3.4L60.4,3.4L60.4,3.4z"/>
	<path class="st0" d="M64.5,17c0,0.4,0,0.5,0.2,0.5c0.1,0,0.1-0.2,0.1-0.6l0.1-4v-0.3c0-0.2-0.2-0.5-0.5-0.7L63,11.2
		c-0.9-0.5-1-1.3-1-2.2L62,6.5c0.1-2.5,0.2-3.1,2.1-3.1c2.4,0,2.4,0.5,2.7,3.1l0.3,2.1h-2.2l-0.3-2.9c0-0.4,0-0.6-0.2-0.6
		c-0.1,0-0.1,0.2-0.1,0.6l0,3.1v0.1c0,0.4,0,0.5,0.5,0.9l1.4,0.9c1,0.6,1,1.3,1,2.2L67,16.1c-0.2,2.5,0,3.1-2.2,3.1
		c-2.4,0-2.2-0.4-2.6-2.8l-0.3-3.1h2.2L64.5,17z"/>
</g>
<g>
	<path class="st1" d="M28.8,51.2c0-0.2-0.1-0.3-0.2-0.4h-0.3v12.1h0.3c1,0,1-0.4,1-1.5v-0.2l-0.8-9.3L28.8,51.2z"/>
	<path class="st1" d="M29.7,42V22.7v-0.2c0-1.1,0-1.5-1-1.5h-0.3v22.6h0.3c1,0,1-0.4,1-1.4V42z"/>
	<path class="st1" d="M87.7,76.3L87.7,76.3l0-0.3l0-0.4c-0.1-2.1-0.1-4.1-0.2-6.2c-0.1-4.2-0.3-8.5-0.4-12.9
		c-0.1-4.4-0.3-8.8-0.5-13.3c-0.2-4.5-0.4-9.1-0.6-13.6c-0.1-2.3-0.2-4.6-0.3-6.9c-0.1-2.3-0.3-4.6-0.4-6.9c-0.1-2.3-0.3-4.6-0.4-7
		l-0.1-0.9c-0.1-0.5-0.1-1.1-0.3-1.7c-0.3-1.1-0.9-2.1-1.7-2.9c-0.2-0.2-0.4-0.4-0.6-0.6c-0.2-0.2-0.4-0.3-0.7-0.5
		c-0.4-0.3-1-0.6-1.5-0.8c-0.1-0.1-0.2-0.1-0.4-0.2c-0.2,0-0.3-0.1-0.5-0.1C78.7,1,78.4,0.9,78,0.8c-0.1,0-0.2,0-0.2,0l-0.1,0
		l-0.2,0l-0.4,0c-0.8,0-0.3,0-0.5,0l-0.1,0l-0.2,0l-0.4,0l-0.9,0.1L73.1,1l-3.5,0.3c-2.3,0.2-4.6,0.4-7,0.5
		c-2.3,0.2-4.6,0.4-6.9,0.5c-2.3,0.2-4.6,0.4-6.9,0.6c-4.6,0.4-9.1,0.8-13.6,1.2C30.8,4.7,26.4,5.1,22,5.6C17.7,6,13.4,6.5,9.2,6.9
		L8.4,7C8,7.1,7.6,7.1,7.2,7.2C6.8,7.3,6.5,7.5,6.1,7.7c-0.3,0.2-0.7,0.4-1,0.7C4.8,8.6,4.5,8.9,4.2,9.2c-0.2,0.3-0.5,0.6-0.7,1
		c-0.2,0.4-0.3,0.7-0.4,1.1C3.1,11.5,3,11.7,3,12l-0.1,0.3l0,0.2l0,0.1l0,0.4v0.2v0.1c0,0,0,0.4,0,0.3L3,14.3c0.1,0.5,0.1,1,0.2,1.5
		c0.1,1,0.2,2,0.3,3c0.8,8,1.6,15.5,2.3,22.5c0.8,7,1.3,13.4,1.8,19C8.2,66,8.5,71,8.8,75c0.2,2,0.3,3.9,0.4,5.4
		c0,0.4,0.1,0.8,0.1,1.1c0.1,0.4,0.1,0.8,0.2,1.1c0.1,0.3,0.2,0.7,0.4,0.9c0.1,0.1,0.2,0.3,0.3,0.4c0.1,0.1,0.2,0.2,0.3,0.3
		c0.8,0.8,1.7,1.1,2.3,1.2c0.6,0,0.9,0,0.9,0l0,0c0,0,4.7-0.3,12.8-0.8c4.1-0.3,9-0.6,14.7-0.8c5.7-0.3,12.1-0.6,19.1-0.8
		c3.5-0.1,7.1-0.2,10.9-0.4c1.9-0.1,3.8-0.1,5.8-0.2c1,0,2-0.1,2.9-0.1c0.5,0,1,0,1.5-0.1l0.7,0c0.3,0,0.7-0.1,1.1-0.1
		c1.4-0.3,2.7-1.2,3.5-2.5c0.2-0.3,0.3-0.7,0.5-1c0.1-0.4,0.2-0.9,0.3-1.3c0-0.3,0-0.5,0.1-0.8C87.7,76.8,87.7,76.3,87.7,76.3z
		 M53.3,13.5H62v4.1h-3.2V29H62v4.1h-3.2v19.1h-5.4C53.3,52.2,53.3,13.5,53.3,13.5z M45.2,13.5h5.4v38.7h-5.4V13.5z M24.5,18h5.2
		c3.7,0,4,1.4,4,5.8v17.1c0,4.4-0.3,5.8-4,5.8h-5.2V18z M22.4,35.2c0,2.3-0.4,3.4-1.8,3.8c1.4,0.4,1.8,1.6,1.8,3.8v3.9
		c0,4.4-0.4,5.5-4.4,5.5c-4.1,0-4.4-1.1-4.4-5.5v-4.4h3.8v5.9c0,0.7,0.1,1,0.6,1c0.5,0,0.6-0.4,0.6-1v-6.7c0-0.5-0.2-0.8-0.6-0.8
		h-1.6v-3.2H18c0.5,0,0.6-0.3,0.6-0.8v-9.5c0-0.7-0.1-1.1-0.6-1.1c-0.5,0-0.6,0.4-0.6,1.1v8.4h-3.8v-6.8c0-4.5,0.3-5.5,4.6-5.5
		c4,0,4.3,1.1,4.3,5.5C22.4,28.8,22.4,35.2,22.4,35.2z M33,64.7c-0.6,0.8-1.6,1.2-3.4,1.2h-1.3v10.6h-3.9V47.8h5.2
		c1.8,0,2.5,0.6,2.7,1.4c0.3,0.8,0.4,1.6,0.6,4.4l0.6,7.7C33.7,63.2,33.6,63.8,33,64.7z M39.6,62.8l-0.5-6.2c0-0.2,0-0.3,0-0.5
		c0-0.2-0.1-0.4-0.4-0.5c-0.2,0-0.2,0-0.2,0.4v20.4h-3.4V53.1h3.4c1.5,0.1,3.5,0,3.9,2.7l0.6,7L39.6,62.8L39.6,62.8z M43.7,52.2
		h-8.6V13.5h5.4v34.6h3.2L43.7,52.2L43.7,52.2z M47.6,76.4h-3.4V53.1h3.4V76.4z M53.9,76.4l-0.1-20v-0.3c0-0.4-0.3-0.5-0.6-0.5
		c-0.5,0-0.4,0.1-0.4,0.5v20.3h-3.2V53c2.1,0,3.8-0.1,4.2-0.1c1.8,0,3.3,1,3.3,3.7l0,19.8L53.9,76.4L53.9,76.4z M64,59.3h-1.4v14.2
		c0,0.7,0.2,0.8,1.2,0.8H64v2.2h-1c-3.1,0-3.7-0.6-3.7-3.3V59.3h-0.8v-2.1h0.8v-4.4h3.4v4.4H64L64,59.3L64,59.3z M72.5,71.8
		c-0.3,3.8,0,4.7-3.3,4.7c-3.6,0-3.3-0.6-3.9-4.2l-0.5-4.7h3.4l0.6,5.6c0.1,0.6,0.1,0.8,0.3,0.8c0.1,0,0.1-0.3,0.1-0.9l0.1-6v-0.4
		c0-0.3-0.4-0.7-0.8-1l-2-1.2c-1.4-0.8-1.6-1.9-1.6-3.3l0.1-3.6c0.1-3.7,0.4-4.7,3.1-4.7c3.6,0,3.5,0.8,4,4.7l0.4,3.2h-3.4l-0.4-4.4
		c-0.1-0.6-0.1-0.9-0.3-0.9c-0.2,0-0.2,0.3-0.2,0.9l-0.1,4.6V61c0,0.5,0,0.7,0.8,1.3l2,1.3c1.4,1,1.6,1.9,1.6,3.3L72.5,71.8z
		 M72.7,17.6h-3.2V29h3.2v4.1h-3.2v15h3.2v4.1h-8.6V13.5h8.6V17.6z"/>
</g>
</svg>
