<?xml version="1.0" encoding="utf-8"?>
<!-- Generator: Adobe Illustrator 20.0.0, SVG Export Plug-In . SVG Version: 6.00 Build 0)  -->
<svg version="1.1" id="Layer_1" xmlns="http://www.w3.org/2000/svg" xmlns:xlink="http://www.w3.org/1999/xlink" x="0px" y="0px"
	 viewBox="0 0 875.6 176.2" style="enable-background:new 0 0 875.6 176.2;" xml:space="preserve">
<style type="text/css">
	.st0{fill:url(#SVGID_1_);}
	.st1{fill:url(#SVGID_2_);}
	.st2{fill:url(#SVGID_3_);}
	.st3{fill:url(#SVGID_4_);}
</style>
<g>
	<linearGradient id="SVGID_1_" gradientUnits="userSpaceOnUse" x1="16.2453" y1="140.3633" x2="103.1504" y2="107.6168">
		<stop  offset="0" style="stop-color:#007373"/>
		<stop  offset="6.210494e-02" style="stop-color:#10827E"/>
		<stop  offset="0.1531" style="stop-color:#1F948D"/>
		<stop  offset="0.2534" style="stop-color:#29A49A"/>
		<stop  offset="0.3667" style="stop-color:#30B0A4"/>
		<stop  offset="0.5036" style="stop-color:#34B8AB"/>
		<stop  offset="0.7289" style="stop-color:#34BCAD"/>
	</linearGradient>
	<path class="st0" d="M44.2,123.9H15.8c-10.8,0-13.2-6.8-11.4-12.4L4.2,112c-1.3,4.9,0.3,7.3,1.8,10.1c4.9,9.4,20.3,37.7,20.3,37.7
		c1.9,3.4,4.6,5.3,9,5.3c8.7,0,22.6-8.9,22.6-8.9l51.9-32.3H44.2z"/>
	<linearGradient id="SVGID_2_" gradientUnits="userSpaceOnUse" x1="18.9445" y1="127.0485" x2="70.2919" y2="10.7887">
		<stop  offset="0" style="stop-color:#87BC40"/>
		<stop  offset="0.2034" style="stop-color:#81B640"/>
		<stop  offset="0.4085" style="stop-color:#71A73F"/>
		<stop  offset="0.6145" style="stop-color:#59923C"/>
		<stop  offset="0.8199" style="stop-color:#377838"/>
		<stop  offset="1" style="stop-color:#015F31"/>
	</linearGradient>
	<path class="st1" d="M54.7,4.6h-0.1c-5.7,0-7,3.6-7.3,4.3L4.7,110.6c-2.3,5.7-0.3,13.3,11.1,13.3h28.4l33-78
		C68.3,25.1,61.9,10,61.9,9.8C61.5,8.8,59.6,4.6,54.7,4.6z"/>
	<g>
		<linearGradient id="SVGID_3_" gradientUnits="userSpaceOnUse" x1="76.6274" y1="4.3529" x2="142.5357" y2="165.5304">
			<stop  offset="6.337690e-03" style="stop-color:#12AAE2"/>
			<stop  offset="2.809256e-02" style="stop-color:#12A8E1"/>
			<stop  offset="0.7002" style="stop-color:#1D6EB5"/>
			<stop  offset="1" style="stop-color:#1E59A7"/>
		</linearGradient>
		<path class="st2" d="M106.7,8.6c-0.4-0.9-2.1-4.3-6.9-4.4c0,0-0.2,0-0.2,0h-45c-4.7,0-6.5,3.1-6.9,3.8c0,0,1.6-3.4,6.9-3.4h0.1
			c5,0,6.8,4.2,7.2,5.2c0,0.1,6.5,15.3,15.2,36.1c19.4,45.9,50.3,119.2,50.3,119.2h45.4C172.8,165.2,107.1,9.6,106.7,8.6z"/>
	</g>
</g>
<g>
	<g>
		<g>
			<path d="M279.4,77.1h-13.5l-7.4-17.6h-34.4l-7.5,17.6h-13.1l32-73.2h11.8L279.4,77.1z M241.3,19.1l-12.5,29.1h25L241.3,19.1z"/>
			<path d="M397.4,77.1h-12.9V16.2h-23.1V4.3h60.1l-5,11.8h-19.1V77.1z"/>
			<path d="M639.3,4.3h2.7v11.8h-39v18.5H628v11.4h-24.9v19.3h39v11.6h-51.8V4.3H639.3"/>
			<path d="M733.4,77.1h-12.2V4.3h12.2V77.1z"/>
		</g>
		<path d="M681.5,14.8c-7.4,0-13.7,2.2-13.8,7.2c0,5.8,3.6,7.8,17.3,12.2c15.1,5,23.2,10,23.1,22.3c-0.1,13.9-10.8,21.8-26.4,21.8
			c-11.1,0-21-3.6-28.6-10.2l4.7-11.4c6.9,5.8,15.2,9.8,24.2,9.9c7.9,0,13.5-3.8,13.5-9.5c0-4.8-2.7-7.9-16-12.1
			c-15.2-5-24.4-10.2-24.3-22.6c0.1-12.3,11.6-19.4,26.2-19.3c14.5,0.1,22.7,5.4,24,6.1l-4.6,10.4C697.7,18,691.2,14.8,681.5,14.8z"
			/>
		<polygon points="749.1,39.6 781.6,4.3 766,4.3 733.4,39.6 769.3,77.1 785.1,77.1 		"/>
		<path d="M460.9,3.1c-20.8,0-37.6,16.8-37.6,37.6c0,20.8,16.8,37.6,37.6,37.6c20.8,0,37.6-16.8,37.6-37.6
			C498.5,19.9,481.6,3.1,460.9,3.1z M460.9,66.6c-14.3,0-24.7-11.6-24.7-25.9c0-14.3,10.4-25.9,24.7-25.9
			c14.3,0,24.7,11.6,24.7,25.9C485.6,55,475.1,66.6,460.9,66.6z"/>
		<path d="M539.5,4.3H512v72.7h27.6c20.8,0,37.6-15.7,37.6-36.5C577.1,19.8,560.3,4.3,539.5,4.3z M539.5,65.4h-14.7V16.2h14.8
			c14.3,0,24.7,10.1,24.7,24.4C564.3,54.9,553.8,65.4,539.5,65.4z"/>
		<path d="M347.4,44.8c0,21.7-12.7,33.4-31.2,33.4c-18.4,0-31.2-11.7-31.2-33.4V4.3h12.9v42c0,12.7,7.5,20.2,18.3,20.2
			c10.8,0,18.3-7.5,18.3-20.2v-42h12.9V44.8z"/>
	</g>
</g>
<g>
	<g>
		<g>
			<g>
				<g>
					<path d="M800.8,72.2c0-2.7-2.2-4.8-4.9-4.8c-2.7,0-4.8,2.2-4.8,4.8c0,2.7,2.2,4.8,4.8,4.8C798.6,77.1,800.8,74.9,800.8,72.2z
						 M800.1,72.2c0,2.4-1.8,4.2-4.1,4.2c-2.4,0-4.1-1.7-4.1-4.2c0-2.4,1.8-4.2,4.1-4.2C798.3,68,800.1,69.8,800.1,72.2z"/>
				</g>
				<g>
					<path d="M798.1,74.7l-1.2-1.6c-0.2-0.3-0.4-0.5-0.6-0.7c0.8-0.1,1.3-0.6,1.3-1.3c0-0.7-0.5-1.4-1.5-1.4h-1.6v5h0.7v-2.3
						c0.4,0,0.5,0.1,0.8,0.5l1.2,1.8H798.1z M796.9,71.1c0,0.7-0.6,0.8-1.2,0.8h-0.5v-1.6h0.7C796.6,70.3,796.9,70.6,796.9,71.1z"/>
				</g>
			</g>
		</g>
	</g>
</g>
<g>
	<linearGradient id="SVGID_4_" gradientUnits="userSpaceOnUse" x1="865.1053" y1="128.7626" x2="206.4986" y2="128.7626">
		<stop  offset="0.2194" style="stop-color:#73AB67"/>
		<stop  offset="0.7249" style="stop-color:#428CA7"/>
		<stop  offset="1" style="stop-color:#177DC1"/>
	</linearGradient>
	<path class="st3" d="M209,97.4v29.9h41.2v5H209v32.9h-5.4V92.3h51.3v5H209z M298.3,166.4c-22,0-36.5-17.6-36.5-37.4v-0.2
		c0-19.8,14.6-37.6,36.7-37.6c22,0,36.5,17.6,36.5,37.4c0.1,0.1,0.1,0.1,0,0.2C335,148.6,320.4,166.4,298.3,166.4z M329.4,128.7
		c0-18-13.1-32.7-31.1-32.7c-18,0-30.9,14.6-30.9,32.6v0.2c0,18,13.1,32.8,31.1,32.8c18,0,30.9-14.6,30.9-32.6V128.7z M377.5,166.3
		c-17.5,0-29.8-11-29.8-31.4V92.3h5.4v42c0,17.1,9.2,27,24.6,27c14.8,0,24.2-8.9,24.2-26.5V92.3h5.4v41.9
		C407.4,155.2,395.2,166.3,377.5,166.3z M479,165.1l-51.3-64.7v64.7h-5.2V92.3h5.1l50.2,63.3V92.3h5.2v72.8H479z M522.9,165.1h-24.2
		V92.3h24.2c22.9,0,38.7,15.7,38.7,36.2v0.2C561.6,149.2,545.8,165.1,522.9,165.1z M556,128.7c0-17.2-12.8-31.4-33.1-31.4h-18.8
		v62.8h18.8c20.3,0,33.1-13.8,33.1-31.2V128.7z M630.9,165.1l-9.3-20.4h-42.9l-9.2,20.4h-5.6l33.9-73.3h5.2l33.9,73.3H630.9z
		 M600.2,97.8L581,139.9h38.4L600.2,97.8z M662.4,97.4v67.8H657V97.4h-25.4v-5h56.1v5H662.4z M701,165.1V92.3h5.4v72.8H701z
		 M757.4,166.4c-22,0-36.5-17.6-36.5-37.4v-0.2c0-19.8,14.7-37.6,36.7-37.6c22,0,36.5,17.6,36.5,37.4c0.1,0.1,0.1,0.1,0,0.2
		C794.1,148.6,779.4,166.4,757.4,166.4z M788.5,128.7c0-18-13.1-32.7-31.1-32.7c-18,0-30.9,14.6-30.9,32.6v0.2
		c0,18,13.1,32.8,31.1,32.8c18,0,30.9-14.6,30.9-32.6V128.7z M863.7,165.1l-51.3-64.7v64.7h-5.2V92.3h5.1l50.2,63.3V92.3h5.2v72.8
		H863.7z"/>
</g>
</svg>
