<?xml version="1.0" encoding="utf-8"?>
<!-- Generator: Adobe Illustrator 20.0.0, SVG Export Plug-In . SVG Version: 6.00 Build 0)  -->
<svg version="1.1" id="Default" xmlns="http://www.w3.org/2000/svg" xmlns:xlink="http://www.w3.org/1999/xlink" x="0px" y="0px"
	 viewBox="0 0 396.1 220.9" style="enable-background:new 0 0 396.1 220.9;" xml:space="preserve">
<style type="text/css">
	.st0{fill:url(#SVGID_1_);}
	.st1{fill:url(#SVGID_2_);}
	.st2{fill:url(#SVGID_3_);}
</style>
<linearGradient id="SVGID_1_" gradientUnits="userSpaceOnUse" x1="199.9" y1="504.4163" x2="308.6269" y2="504.4163" gradientTransform="matrix(1 0 0 -1 0 586.9406)">
	<stop  offset="1.123600e-02" style="stop-color:#009D84"/>
	<stop  offset="0.5" style="stop-color:#008B6A"/>
	<stop  offset="1" style="stop-color:#006655"/>
</linearGradient>
<path class="st0" d="M199.9,140.2c0,0,14.5-6.7,20.1-67.7s100.9-66.8,87.3,2.3C293.7,143.9,199.9,140.2,199.9,140.2z"/>
<linearGradient id="SVGID_2_" gradientUnits="userSpaceOnUse" x1="120.4507" y1="516.0851" x2="199.7649" y2="516.0851" gradientTransform="matrix(1 0 0 -1 0 586.9406)">
	<stop  offset="0" style="stop-color:#C6C773"/>
	<stop  offset="0.5225" style="stop-color:#A2AD20"/>
	<stop  offset="1" style="stop-color:#82901D"/>
</linearGradient>
<path class="st1" d="M190.6,19.5c-1.5,2.1-2.9,4.4-4.1,6.7c-1.1,2.2-2.1,4.5-3,6.8c-0.5,1.3-0.9,2.6-1.2,3.9
	c-0.7,2.7-1.3,5.4-1.6,8.2c-0.3,2.9-0.4,5.7-0.2,8.6c0.2,3,0.6,6,1.3,8.9c0.7,3.1,1.7,6.1,2.9,9.1c7.9,19.5,11.9,33.7,13.8,43.9
	c1.8,10.2,1.5,16.3,0.9,19.7c-0.1,0.6-0.2,1.1-0.3,1.7c-2.7-6.1-13-20.7-52.2-43.2c-53.1-30.5-18.6-119.5,38.5-78.4
	C187.2,16.7,188.9,18.1,190.6,19.5z"/>
<linearGradient id="SVGID_3_" gradientUnits="userSpaceOnUse" x1="182.6493" y1="517.6505" x2="261.9043" y2="517.6505" gradientTransform="matrix(1 0 0 -1 0 586.9406)">
	<stop  offset="1.123600e-02" style="stop-color:#F9E69E"/>
	<stop  offset="0.5112" style="stop-color:#EFCB00"/>
	<stop  offset="1" style="stop-color:#C7A400"/>
</linearGradient>
<path class="st2" d="M186.7,70.9c15.4,40.2,17.5,55,13.2,67.7c2.4-2.7,2.6-3.1,2.8-3.3c1.9-2.7,2.5-4,3.2-5.5c1-2.3,2-5.2,2.9-8.2
	c1.3-4.3,2.5-8.6,3.6-13c1.4-6,2.5-12,3.4-18.1c0.3-2.1,0.6-4.1,0.8-6.2c0.2-1.9,0.5-3.8,0.7-5.7c0.1-1.1,0.2-2.1,0.3-3.2
	c0.1-0.5,0.1-1.1,0.2-1.6c0.1-0.6,0.1-1.2,0.2-1.8s0.1-1.3,0.2-1.9c0.1-0.7,0.2-1.3,0.3-2c0.2-1.1,0.4-2.2,0.6-3.2
	c0.5-2.1,1.1-4.2,1.8-6.3c0.7-2,1.5-3.9,2.4-5.8c1.4-2.9,3.1-5.7,5-8.2c2.5-3.4,5.4-6.4,8.7-9.1c2.7-2.2,5.6-4.2,8.7-5.9
	c1.6-0.9,3.3-1.7,5-2.4c3.4-1.4,6.9-2.5,10.5-3.3c0.3-0.1,0.5-0.1,0.8-0.2C237.7-29.9,164.8,16.9,186.7,70.9z"/>
<g>
	<path d="M26.5,221.9c-9.6,0-20.3-6.9-20.3-25.5S17,171,26.5,171c4.2,0,8.7,1.5,11.4,3.4l-1.5,2.7c-2.6-1.7-6.3-3-9.9-3
		c-7.8,0-16.8,5.6-16.8,22.3c0,16.8,8.9,22.4,16.8,22.4c3.6,0,7.4-1.3,9.9-3l1.5,2.7C34.9,220.5,30.7,221.9,26.5,221.9z"/>
	<path d="M66.6,221.9c-13,0-19.7-11-19.7-25.5S53.6,171,66.6,171s19.7,10.9,19.7,25.4S79.6,221.9,66.6,221.9z M66.6,174
		c-11,0-16.2,9.8-16.2,22.3c0,12.6,5.2,22.4,16.2,22.4s16.2-9.8,16.2-22.4C82.8,183.8,77.6,174,66.6,174z"/>
	<path d="M100.1,220.9v-71.5h3.5v71.5H100.1z"/>
	<path d="M137.1,221.9c-13,0-19.7-11-19.7-25.5s6.7-25.4,19.7-25.4s19.7,10.9,19.7,25.4S150.1,221.9,137.1,221.9z M137.1,174
		c-11,0-16.2,9.8-16.2,22.3c0,12.6,5.2,22.4,16.2,22.4s16.2-9.8,16.2-22.4C153.3,183.8,148.1,174,137.1,174z"/>
	<path d="M188.9,174.2c-0.5-0.1-1.8-0.2-3.1-0.2c-4.4,0-9.5,0.9-12.3,2.2v44.7H170v-46.7c3.8-1.9,10.4-3.4,16-3.4
		c1.2,0,2.5,0.1,3.6,0.2L188.9,174.2z"/>
	<path d="M211.7,165.7v16.5h20.1v10.6h-20.1V221h-12.6v-66h34.7v10.8h-22.1V165.7z"/>
	<path d="M260.5,222c-14.8,0-22.1-5.8-22.1-15.9c0-13.4,13.9-16,28.8-16.9v-2.4c0-5.1-3.6-7-9.2-7c-4.6,0-10.3,1.5-13.8,2.9
		l-3.1-8.4c4.1-1.7,11.1-3.6,18.2-3.6c12.6,0,19.6,4.9,19.6,17.5v30.3C275.2,220.4,267.9,222,260.5,222z M267.1,197.3
		c-9.1,0.5-17.1,1.3-17.1,8.7c0,4.6,3.6,7.3,10.1,7.3c2.6,0,5.7-0.5,7-1V197.3z"/>
	<path d="M307.3,222c-6.8,0-13.4-1.6-17.4-3.6v-69.1h12.4v23.5c2.2-1,5.7-1.6,8.7-1.6c12.8,0,21.4,8.8,21.4,23.9
		C332.4,213.5,323,222,307.3,222z M308.6,180.7c-2.3,0-4.7,0.5-6.3,1.3v29.3c1.2,0.5,3.5,1,5.7,1c7.1,0,11.8-5.4,11.8-16.2
		C319.9,186.4,315.6,180.7,308.6,180.7z"/>
	<path d="M359.2,222c-6.8,0-13.4-1.6-17.4-3.6v-69.1h12.4v23.5c2.2-1,5.7-1.6,8.7-1.6c12.8,0,21.4,8.8,21.4,23.9
		C384.2,213.5,374.8,222,359.2,222z M360.4,180.7c-2.3,0-4.7,0.5-6.3,1.3v29.3c1.2,0.5,3.5,1,5.7,1c7.1,0,11.8-5.4,11.8-16.2
		C371.7,186.4,367.5,180.7,360.4,180.7z"/>
</g>
</svg>
