<?xml version="1.0" encoding="utf-8"?>
<!-- Generator: Adobe Illustrator 20.0.0, SVG Export Plug-In . SVG Version: 6.00 Build 0)  -->
<svg version="1.1" id="logo_tm_color" xmlns="http://www.w3.org/2000/svg" xmlns:xlink="http://www.w3.org/1999/xlink" x="0px"
	 y="0px" viewBox="0 0 636 138.6" style="enable-background:new 0 0 636 138.6;" xml:space="preserve">
<style type="text/css">
	.grey{fill-opacity:0.54;}
	.st0{fill:#547DBE;}
	.st1{fill:#E94435;}
	.st2{fill:#F8BB15;}
	.st3{fill:#34A751;}
	.st4{opacity:0.54;}
	.st5{fill:#221F1F;}
</style>
<g>
	<g>
		<g>
			<g>
				<path class="st0" d="M51.4,101.4C23.5,101.4,0,78.6,0,50.7C0,22.7,23.5,0,51.4,0c15.5,0,26.5,6.1,34.7,14l-9.8,9.8
					c-5.9-5.6-14-9.9-25-9.9c-20.4,0-36.3,16.4-36.3,36.8c0,20.4,15.9,36.8,36.3,36.8c13.2,0,20.8-5.3,25.6-10.1
					c4-4,6.6-9.6,7.5-17.4H51.4V46.1H98c0.5,2.5,0.7,5.4,0.7,8.7c0,10.4-2.8,23.2-12,32.4C77.9,96.4,66.5,101.4,51.4,101.4z"/>
				<path class="st1" d="M173.3,68.7c0,18.8-14.6,32.6-32.6,32.6s-32.6-13.8-32.6-32.6c0-18.9,14.6-32.6,32.6-32.6
					S173.3,49.8,173.3,68.7z M159,68.7C159,57,150.5,49,140.7,49c-9.8,0-18.3,8-18.3,19.8c0,11.6,8.5,19.8,18.3,19.8
					C150.5,88.5,159,80.4,159,68.7z"/>
				<path class="st2" d="M248.8,68.7c0,18.8-14.6,32.6-32.6,32.6s-32.6-13.8-32.6-32.6c0-18.9,14.6-32.6,32.6-32.6
					S248.8,49.8,248.8,68.7z M234.6,68.7c0-11.7-8.5-19.8-18.3-19.8c-9.8,0-18.3,8-18.3,19.8c0,11.6,8.5,19.8,18.3,19.8
					C226.1,88.5,234.6,80.4,234.6,68.7z"/>
				<path class="st0" d="M320.9,38.1v58.6c0,24.1-14.2,34-31,34c-15.8,0-25.3-10.6-28.9-19.3l12.5-5.2c2.2,5.3,7.7,11.6,16.4,11.6
					c10.8,0,17.4-6.7,17.4-19.2V94h-0.5c-3.2,4-9.4,7.4-17.2,7.4c-16.3,0-31.3-14.2-31.3-32.5c0-18.4,15-32.8,31.3-32.8
					c7.8,0,14,3.5,17.2,7.3h0.5v-5.3H320.9z M308.3,68.9c0-11.5-7.7-19.9-17.4-19.9c-9.9,0-18.2,8.4-18.2,19.9
					c0,11.4,8.3,19.7,18.2,19.7C300.6,88.5,308.3,80.2,308.3,68.9z"/>
				<path class="st3" d="M348.7,3.5v95.9h-14.3V3.5H348.7z"/>
				<path class="st1" d="M407,79.5l11.1,7.4c-3.6,5.3-12.2,14.5-27.2,14.5c-18.5,0-32.4-14.3-32.4-32.6c0-19.4,14-32.6,30.8-32.6
					c16.9,0,25.2,13.5,27.9,20.8l1.5,3.7l-43.6,18c3.3,6.6,8.5,9.9,15.8,9.9C398.2,88.5,403.3,84.9,407,79.5z M372.8,67.7l29.2-12.1
					c-1.6-4.1-6.4-6.9-12.1-6.9C382.5,48.7,372.4,55.1,372.8,67.7z"/>
			</g>
		</g>
		<g>
			<g>
				<path class="grey" d="M435.3,30.7v1.6h-3.6v11.4H430V32.4h-3.6v-1.6H435.3z"/>
				<path class="grey" d="M453,30.7v13h-1.7v-7.9c0-1,0.1-2.5,0.1-2.5h-0.1l-4.1,10.4h-1.4l-4.1-10.4h-0.1c0,0,0.1,1.5,0.1,2.5v7.9
					H440v-13h2.4l4,10.6h0.1l4-10.6H453z"/>
			</g>
		</g>
	</g>
	<g class="st4">
		<path class="st5" d="M429.5,94.1c0-4.9,3.9-8.8,8.8-8.8s8.8,3.9,8.8,8.8c0,4.9-3.9,8.8-8.8,8.8S429.5,99,429.5,94.1z"/>
		<path class="st5" d="M522.1,70.5c0,19.3-13.6,33.8-32.6,33.8s-32.6-14.5-32.6-33.8c0-19.3,13.6-33.8,32.6-33.8
			S522.1,51.2,522.1,70.5z M510.2,70.5c0-14.5-10.1-22.9-20.7-22.9s-20.7,8.4-20.7,22.9s10.1,22.9,20.7,22.9S510.2,84.9,510.2,70.5z
			"/>
		<path class="st5" d="M531.6,102.1V38.8H543v10.3h0.5c2.6-7.2,11.8-11.9,18.4-11.9c3.9,0,6.5,0.5,8.9,1.6l-4.5,11.1
			c-1.7-0.6-3.8-0.9-6.3-0.9c-8.1,0-16.4,6.9-16.4,18.5v34.7H531.6z"/>
		<path class="st5" d="M575,113.7l10.9-4.5c2.3,6.7,9.2,12.2,17.7,12.2c13.2,0,21.1-8.5,21.1-21.9v-6.1h-0.5
			c-3.9,5.8-11.5,10.9-21.6,10.9c-16.2,0-30.1-14.4-30.1-33.8s14-33.8,30.1-33.8c10.1,0,17.7,5,21.6,10.9h0.5v-8.8H636v60.1
			c0,23-15.8,33.2-32.5,33.2S578.2,121.3,575,113.7z M624.6,70.5c0-14.5-9.6-22.9-20.2-22.9c-10.6,0-20.2,8.7-20.2,22.9
			c0,14.2,9.6,22.9,20.2,22.9C615,93.4,624.6,84.9,624.6,70.5z"/>
	</g>
</g>
</svg>
