<?xml version="1.0" encoding="utf-8"?>
<!-- Generator: Adobe Illustrator 20.0.0, SVG Export Plug-In . SVG Version: 6.00 Build 0)  -->
<svg version="1.1" id="Layer_1" xmlns="http://www.w3.org/2000/svg" xmlns:xlink="http://www.w3.org/1999/xlink" x="0px" y="0px"
	 viewBox="0 0 429.7 92" style="enable-background:new 0 0 429.7 92;" xml:space="preserve">
<style type="text/css">
	.st0{fill:#EA4335;}
	.st1{fill:#FBBC05;}
	.st2{fill:#4285F4;}
	.st3{fill:#34A853;}
	.st4{fill:#63666A;stroke:#FFFFFF;stroke-width:3;stroke-miterlimit:10;}
	.st5{font-family:'Futura-Medium';}
	.st6{font-size:93.9882px;}
	.st7{letter-spacing:-5;}
	.st8{fill:#63666A;stroke:#FFFFFF;stroke-width:2;stroke-miterlimit:10;}
	.st9{fill:#63666A;}
</style>
<path class="st0" d="M115.8,47.2c0,12.8-10,22.2-22.2,22.2S71.2,60,71.2,47.2c0-12.9,10-22.2,22.2-22.2S115.8,34.3,115.8,47.2z
	 M106,47.2c0-8-5.8-13.4-12.5-13.4S81,39.2,81,47.2c0,7.9,5.8,13.4,12.5,13.4S106,55.1,106,47.2z"/>
<path class="st1" d="M163.8,47.2c0,12.8-10,22.2-22.2,22.2s-22.2-9.4-22.2-22.2c0-12.8,10-22.2,22.2-22.2S163.8,34.3,163.8,47.2z
	 M154,47.2c0-8-5.8-13.4-12.5-13.4S129,39.2,129,47.2c0,7.9,5.8,13.4,12.5,13.4S154,55.1,154,47.2z"/>
<path class="st2" d="M209.8,26.3v39.8c0,16.4-9.7,23.1-21.1,23.1c-10.8,0-17.2-7.2-19.7-13.1l8.5-3.5c1.5,3.6,5.2,7.9,11.2,7.9
	c7.3,0,11.8-4.5,11.8-13v-3.2h-0.3c-2.2,2.7-6.4,5-11.7,5c-11.1,0-21.2-9.7-21.2-22.1c0-12.5,10.2-22.3,21.2-22.3
	c5.3,0,9.5,2.4,11.7,5h0.3v-3.6L209.8,26.3L209.8,26.3z M201.2,47.3c0-7.8-5.2-13.5-11.8-13.5c-6.7,0-12.4,5.7-12.4,13.5
	c0,7.7,5.6,13.4,12.4,13.4C196,60.6,201.2,55,201.2,47.3z"/>
<path class="st3" d="M225,3v65h-9.5V3H225z"/>
<path class="st0" d="M262,54.5l7.6,5c-2.4,3.6-8.3,9.8-18.5,9.8c-12.6,0-22-9.7-22-22.2C229.1,34,238.6,25,250,25
	c11.5,0,17.1,9.2,19,14.1l1,2.5l-29.6,12.3c2.3,4.5,5.8,6.7,10.8,6.7C256.1,60.6,259.5,58.2,262,54.5L262,54.5z M238.7,46.5
	l19.8-8.2c-1.1-2.8-4.4-4.7-8.2-4.7C245.4,33.6,238.5,37.9,238.7,46.5z"/>
<path class="st2" d="M35.3,41.4V32H67c0.3,1.6,0.5,3.6,0.5,5.7c0,7.1-1.9,15.8-8.2,22c-6,6.3-13.8,9.7-24,9.7
	c-19,0-34.9-15.5-34.9-34.4s16-34.4,34.9-34.4c10.5,0,18,4.1,23.6,9.5l-6.6,6.6c-4-3.8-9.5-6.7-17-6.7c-13.9,0-24.7,11.2-24.7,25
	s10.8,25,24.7,25c9,0,14.1-3.6,17.4-6.9c2.7-2.7,4.4-6.5,5.1-11.7L35.3,41.4z"/>
<text transform="matrix(1 0 0 1 295.0001 66.9996)"><tspan x="0" y="0" class="st4 st5 st6 st7">o</tspan><tspan x="50.9" y="0" class="st8 st5 st6 st7">rg</tspan></text>
<circle class="st9" cx="282.5" cy="61.6" r="5.4"/>
</svg>
