<?xml version="1.0" encoding="utf-8"?>
<!-- Generator: Adobe Illustrator 20.0.0, SVG Export Plug-In . SVG Version: 6.00 Build 0)  -->
<svg version="1.1" id="Layer_1" xmlns="http://www.w3.org/2000/svg" xmlns:xlink="http://www.w3.org/1999/xlink" x="0px" y="0px"
	 viewBox="0 0 308.9 77.9" style="enable-background:new 0 0 308.9 77.9;" xml:space="preserve">
<style type="text/css">
	.st0{fill:url(#SVGID_1_);}
	.st1{fill:#7A7A7A;}
</style>
<linearGradient id="SVGID_1_" gradientUnits="userSpaceOnUse" x1="2.4352" y1="38.9404" x2="80.6096" y2="38.9404">
	<stop  offset="0" style="stop-color:#A9212C"/>
	<stop  offset="1" style="stop-color:#D72D4E"/>
</linearGradient>
<polygon class="st0" points="38,2.7 24.4,2.7 2.4,38.9 24.4,75.2 59.1,75.2 37.8,38.9 52.3,15.1 67.1,39 63.2,46.4 52.5,28.6 
	46.3,38.9 63.4,68.2 80.6,39 57.9,2.7 46.4,2.7 24.4,38.9 39.3,64.6 30.9,64.5 15.9,38.9 "/>
<path class="st1" d="M273,59.7c0,4.3-3.2,7.6-7.5,7.6c-4.3,0-7.5-3.3-7.5-7.6s3.2-7.6,7.5-7.6C269.8,52.1,273,55.4,273,59.7
	 M274.6,59.7c0-5.2-3.9-9.1-9.1-9.1c-5.2,0-9.1,3.9-9.1,9.1s3.9,9.1,9.1,9.1C270.7,68.8,274.6,64.9,274.6,59.7 M282.5,58.9l4.5,5.5
	c-1.3,1.5-3.2,2.9-4.9,2.9c-2.4,0-3.8-2-3.8-3.6C278.3,61.1,280.4,59.9,282.5,58.9 M287.5,54.2c0-1.7-1.2-3.6-3.7-3.6
	c-2.3,0-3.9,1.7-3.9,3.6c0,1.2,0.8,2.4,1.6,3.5l0.1,0.1c-2.4,1.1-4.9,2.5-4.9,5.9c0,2.2,1.6,5,5.3,5c2.3,0,4.3-1.6,5.8-3.2l2.4,3
	h1.6l-9.1-11.4c-0.6-0.8-1.5-1.8-1.5-2.8c0-1.3,0.9-2.3,2.4-2.3c1.5,0,2.2,1.2,2.2,2.3c0,1-0.7,1.7-1.6,2.2l0.9,1.1
	C286.5,56.8,287.5,55.8,287.5,54.2 M289.9,63.3l2.1-2.6v-2.1l-3,3.5L289.9,63.3z M304.3,56c0,2.6-1.7,3.7-3.8,3.7h-3.3v-7.5h3.3
	C302.6,52.3,304.3,53.5,304.3,56 M305.9,56c0-3.3-2.2-5.2-5.4-5.2h-4.8v17.6h1.5v-7.4h3.3C303.6,61.2,305.9,59.3,305.9,56
	 M228.4,33.1l-4.6,11.8h9.1L228.4,33.1z M131.9,19.3c0-2.8,0-3.6,0-6.7c-2.7-1.9-5.9-2.9-9.6-2.9c-4.7,0-9,2-12.1,5.2
	c-3,3.2-5,7.6-5,12.5c0,4.8,2,9.2,5,12.4c3,3.2,7.3,5.2,12.1,5.2c3.6,0,6.8-1,9.5-2.9c0-3.4,0-3.5,0-6.5c-2.3,2.9-5.7,4.4-9.5,4.4
	c-3.3,0-6.4-1.4-8.6-3.7c-2.2-2.3-3.6-5.4-3.6-8.9c0-3.6,1.4-6.7,3.6-9c2.2-2.3,5.2-3.7,8.6-3.7C126.3,14.7,129.7,16.3,131.9,19.3
	 M171.2,44.9l-11-13.1c6-1,9-5.7,9-10.7c0-5.5-3.8-11.1-11.4-11.1h-12.7v35h5V15h7.7c4.2,0,6.3,3,6.3,6c0,3-2.1,6.1-6.3,6.1h-4.6
	l0,4l11.5,13.8H171.2z M187.5,33.6v-3.7H198v-5.1h-10.5V21v-6h13.7l2.5-5h-21.3v34.9h21.3l-2.5-5h-13.8V33.6z M238.9,44.9h5.4
	l-14-35.4h-3.7l-14,35.4h5.4l10.5-27.4L238.9,44.9z M263.4,14.6H274V9.9h-26.2v4.7h10.6V45h5V14.6z M303.4,15l2.5-5h-21.3v34.9h21.3
	l-2.5-5h-13.8v-6.2v-3.7h10.5v-5.1h-10.5V21v-6H303.4z"/>
</svg>
