<?xml version="1.0" encoding="utf-8"?>
<!-- Generator: Adobe Illustrator 20.0.0, SVG Export Plug-In . SVG Version: 6.00 Build 0)  -->
<svg version="1.1"
	 id="svg2" inkscape:version="0.91 r13725" sodipodi:docname="studiofathom.svg" xmlns:cc="http://creativecommons.org/ns#" xmlns:dc="http://purl.org/dc/elements/1.1/" xmlns:inkscape="http://www.inkscape.org/namespaces/inkscape" xmlns:rdf="http://www.w3.org/1999/02/22-rdf-syntax-ns#" xmlns:sodipodi="http://sodipodi.sourceforge.net/DTD/sodipodi-0.dtd" xmlns:svg="http://www.w3.org/2000/svg"
	 xmlns="http://www.w3.org/2000/svg" xmlns:xlink="http://www.w3.org/1999/xlink" x="0px" y="0px" viewBox="0 0 505.2 316.3"
	 style="enable-background:new 0 0 505.2 316.3;" xml:space="preserve">
<style type="text/css">
	.st0{display:none;}
</style>
<sodipodi:namedview  bordercolor="#666666" borderopacity="1.0" id="base" inkscape:current-layer="layer1" inkscape:cx="216.98044" inkscape:cy="488.9112" inkscape:document-units="px" inkscape:pageopacity="0.0" inkscape:pageshadow="2" inkscape:window-height="745" inkscape:window-maximized="1" inkscape:window-width="1366" inkscape:window-x="-8" inkscape:window-y="-8" inkscape:zoom="0.98994949" pagecolor="#ffffff" showgrid="false">
	</sodipodi:namedview>
<g id="layer1" inkscape:groupmode="layer" inkscape:label="Layer 1" class="st0">
</g>
<g id="layer2" inkscape:groupmode="layer" inkscape:label="Layer 2">
	<path id="path4166" inkscape:connector-curvature="0" d="M422.3,301.5L408.5,281l0,17.9l0,17.9h-9h-9v-29.8v-29.8l11.3,0l11.3,0
		l11.3,17.6c6.2,9.7,11.4,17.6,11.5,17.6c0.1,0,5.3-7.9,11.5-17.6l11.3-17.6h10.5c5.7,0,10.5,0,10.5,0.1c0,0.1-42.2,62.5-43.3,64
		L436,322L422.3,301.5L422.3,301.5z M488.5,316.8c-1.2-0.3-2-0.9-2.5-2.1c-0.8-1.7-0.6-3.4,0.7-4.6c1.3-1.3,3-1.6,4.6-0.8
		c1.1,0.5,1.5,0.9,2,2c0.7,1.5,0.4,3-0.8,4.3C491.4,316.8,490,317.3,488.5,316.8L488.5,316.8z M491.4,315.7c0.9-0.7,1.3-1.6,1.3-2.9
		c0-2.5-2.5-4-4.7-2.8c-0.8,0.4-1.3,1-1.6,2.1c-0.4,1.5,0.4,3.3,1.8,3.9C489.1,316.5,490.7,316.3,491.4,315.7L491.4,315.7z M488,313
		v-2.4h1.4c1.3,0,1.4,0,1.8,0.5c0.5,0.7,0.5,1.2-0.2,1.8l-0.6,0.5l0.6,0.9c0.7,1,0.7,1.1,0.2,1.1c-0.2,0-0.6-0.4-1.1-1.1
		c-0.9-1.3-1.3-1.3-1.4,0.1c0,0.8-0.1,1-0.4,1C488,315.4,488,315.2,488,313z M490.3,312.5c0.8-0.5,0.2-1.4-0.9-1.3
		c-0.5,0.1-0.8,0.6-0.5,1.2C488.9,312.8,489.7,312.8,490.3,312.5L490.3,312.5z M0,287.1v-29.8h30.7h30.7v7.2v7.2H39.9H18.3v5.4v5.4
		h21.5h21.5v7v7H39.8H18.3v10.2v10.2H9.2H0C0,316.9,0,287.1,0,287.1z M69.1,303.7c4.9-7.3,14.6-21.9,21.7-32.4
		c7.1-10.6,12.9-19.2,12.9-19.2c0.3,0.4,43.2,64.6,43.2,64.7c0,0.1-4.6,0.1-10.2,0.1h-10.2l-11.4-17.6c-6.3-9.7-11.5-17.6-11.5-17.6
		c-0.1,0-5.2,7.9-11.5,17.6l-11.3,17.6l-10.3,0l-10.3,0L69.1,303.7L69.1,303.7z M159.4,294.5v-22.4h-12.9h-12.9v-7.4v-7.4h34.9h34.9
		v7.4v7.4h-12.9h-12.9v22.4v22.4h-9.2h-9.2L159.4,294.5L159.4,294.5z M211.8,287.1v-29.8h9.2h9.2v10.6v10.6h19.3h19.3v-10.6v-10.6
		h9.2h9.2v29.8v29.8h-9.2h-9.2v-11.3v-11.3h-19.3h-19.3v11.3v11.3H221h-9.2V287.1z M318.2,316.8c-2-0.1-5.4-0.7-7.3-1.1
		c-7.4-1.9-11.5-6-13.1-13.3c-0.4-1.8-0.4-2.3-0.5-14.8c-0.1-9.1,0-13.4,0.1-14.7c1.1-8.7,5.3-13.7,13.5-15.7
		c4.6-1.2,4.5-1.2,27.2-1.2c22.8,0,22.5,0,27.2,1.2c8,2,12.1,6.7,13.4,15c0.4,2.8,0.4,25.6,0,28.4c-1.3,8.5-5.6,13.2-13.9,15.2
		c-4.3,1-4,1-25.5,1C328.3,316.8,318.8,316.8,318.2,316.8L318.2,316.8z M354.9,300.9c3.1-1.1,4.5-2.9,5.1-6.6
		c0.3-1.9,0.4-9.7,0.2-12.8c-0.2-3-0.5-4.3-1.3-5.9c-1-1.9-2.9-3.3-5.6-4c-1.5-0.4-28.8-0.4-30.3,0c-2.6,0.6-4.4,1.9-5.3,3.5
		c-1.1,1.8-1.3,3.1-1.6,7.3c-0.2,4.4,0,11.5,0.5,13.1c0.7,2.5,1.7,3.8,3.4,4.7c2.3,1.1,2.2,1.1,18.6,1.1l15,0L354.9,300.9
		L354.9,300.9z M463.5,313.6v-3.3l8.9-12.9c4.9-7.1,8.9-13,9-13c0,0,0.1,7.3,0.1,16.3v16.3h-9h-9V313.6L463.5,313.6z M155.5,214.4
		c-2.7-0.3-5.3-1-8-2.3c-1-0.5-1.1-0.6-1.1-1.1c0-0.7,0.9-1.9,2.5-3.5c3.2-3,7.8-5.1,12-5.4l1.9-0.1l-1.8-1c-3.7-2.2-8.6-5.6-11.4-8
		l-1.2-1l-0.8,0.6c-1.4,1.2-2,1.5-3.5,2.3c-2.6,1.2-4.1,1.6-7.6,1.6c-3.4,0-5.2-0.3-8-1.4c-3-1.2-6.4-3.5-6.4-4.4
		c0-1,3.4-3.5,6.1-4.5c2.9-1.1,4.5-1.4,7.7-1.4c2.2,0,3.2,0.1,4.2,0.4l1.4,0.4l-0.6-0.7c-3.9-4.7-6.5-8.4-8.6-12.1l-1.1-1.9l-1,0.3
		c-1.4,0.4-4.8,0.4-6.5,0c-6.1-1.5-11.8-6.4-14.3-12.3c-0.8-1.9-0.9-2.4-0.4-2.9c0.3-0.4,0.7-0.5,2.2-0.6c4.6-0.5,9.9,1,13.9,3.9
		c0.8,0.6,1.5,1.1,1.5,1s-0.3-0.9-0.6-1.9c-1.3-4-2.4-8.9-3.1-13.7l-0.4-3l-1.3,0c-3.8-0.1-7.8-2.2-10.9-5.5
		c-3.2-3.4-5.4-8.2-5.7-12.3c-0.1-1.4-0.1-1.6,0.2-2c0.3-0.4,0.5-0.4,1.7-0.3c2.9,0.2,6.1,1.5,8.9,3.3c2.6,1.8,4.2,3.5,5.8,6
		l0.7,1.1l0.1-6.2c0.1-3.4,0.2-7.3,0.3-8.7c0.1-1.4,0.2-2.8,0.2-3.2l0.1-0.7l-1.4-0.4c-2.9-0.7-5.3-2.2-7.5-4.6
		c-3.6-3.8-5.5-8.5-5.7-14.1c-0.1-2.5,0-3.1,0.7-3.5c0.8-0.5,5.3,1.3,7.8,3.1c3.1,2.2,6,6.1,7.1,9.3l0.3,0.8l0.4-2.7l0.4-2.7
		l-0.5-1.5c-2.2-6.3-0.2-14.3,5-19.9c1.5-1.6,2.6-2.4,3.2-2.4c1.3,0,3.2,4.7,3.5,8.7c0.5,6.2-1.3,11.3-5.2,14.9l-1.5,1.4l-0.4,3
		c-0.6,4.1-0.6,4.2,0.2,2.7c2.5-4.6,7.6-8.4,13.2-9.9c1-0.2,2.4-0.5,3.2-0.6c1.2-0.1,1.5-0.1,1.8,0.2c1,0.9-0.1,5.7-2.2,9.2
		c-2.5,4.2-6.7,7.6-10.9,8.7c-1.3,0.3-4.9,0.5-6,0.2l-0.6-0.1l-0.1,1.8c-0.4,5.8-0.5,7.7-0.5,11.7l0,4.4l1-1.9
		c2.2-4.3,5.5-7.6,9.8-9.7c1.8-0.9,2.7-1,3.2-0.5c0.7,0.8,1,5.6,0.4,8.4c-1,5.1-3.8,9.6-7.7,12.2c-1.5,1-4.2,2.1-5.1,2.2
		c-0.9,0-0.9,0.1-0.4,3.4c0.6,3.9,1.6,8.3,2.6,11.6c1,3.3,1.1,3.5,1.1,1.9c0-5,3.2-11.5,7.4-15c1.3-1.1,1.8-1.2,2.4-0.6
		c0.6,0.6,1.7,3.1,2.2,4.8c0.4,1.3,0.4,2,0.4,5.1c0,3.1-0.1,3.8-0.4,5.1c-1.2,4.4-4,8.2-7.2,9.9l-1.2,0.6l0.8,1.4
		c2.4,4.4,5.6,8.9,9.1,12.7l1,1.1l-0.4-0.8c-0.9-2-1.2-4.1-1.2-7c0-2.9,0.3-4.7,1.1-7.2c0.6-1.8,2-4.5,2.9-5.7
		c1.3-1.7,1.8-1.5,3.9,1.2c4.1,5.5,5.2,13.5,2.5,19.2c-0.7,1.5-2,3.4-3,4.3l-0.8,0.7l1,0.8c2.1,1.8,4.9,3.9,7.5,5.6
		c2.5,1.6,6.4,4,6.4,3.8c0,0-0.4-0.7-0.9-1.4c-1.7-2.4-2.9-5.6-3.3-8.6c-0.3-1.8-0.1-6.6,0.2-7.7c0.3-0.9,1-1.6,1.5-1.3
		c0.2,0.1,0.9,0.5,1.6,0.8c4.6,2,8.9,6.9,10.4,11.8c1,3.2,1.1,6.8,0.2,9.5c-0.3,0.8-0.5,1.5-0.5,1.6c0,0,1.3,0.6,2.8,1.3
		c3.3,1.4,3.9,1.8,3.9,3.2c0,0.7-0.1,1-0.6,1.5c-0.9,0.9-1.7,0.9-4.7-0.3c-1.3-0.5-2.7-1.1-3.1-1.3l-0.7-0.4l-0.6,0.9
		c-1.8,2.8-5.8,5.3-10,6.1C160.3,214.3,156.9,214.5,155.5,214.4L155.5,214.4z M315.9,214.3c-5.3-0.7-9.7-3.2-12-6.6l-0.5-0.8
		l-2.9,1.2c-3.6,1.5-4.5,1.7-5.5,0.9c-1.1-1-0.9-3.1,0.4-3.7c2.6-1.1,5.4-2.3,5.4-2.4c0,0-0.2-0.8-0.4-1.7c-0.5-1.5-0.5-1.8-0.5-4.4
		c0-2.4,0.1-3,0.5-4.4c1-3.2,2.5-5.8,5-8.3c1.8-1.8,4.3-3.6,6.2-4.3l1.3-0.5l0.5,0.4c0.6,0.4,0.7,0.9,1,3.5
		c0.5,4.4-0.8,9.8-3.4,13.7c-0.4,0.6-0.8,1.3-0.9,1.4c-0.2,0.3,0.7-0.2,4-2.2c3.6-2.2,8.4-5.7,10.1-7.3l0.6-0.6l-0.6-0.6
		c-0.4-0.3-1-1.1-1.5-1.7c-3.5-4.6-4-11.6-1.4-17.8c1.2-2.8,3.8-6.3,4.8-6.3c0.8,0,2.1,1.7,3.4,4.4c2.5,5.3,2.8,11.6,0.7,16.8
		c-0.1,0.2,0.3-0.1,0.8-0.7c3.5-3.8,6.6-8.2,8.9-12.4l0.9-1.6l-0.8-0.4c-2.5-1.2-4.8-3.6-6.2-6.6c-1.5-3.1-1.8-4.5-1.8-8.6
		c0-3.9,0.3-5.4,1.5-8.1c0.8-1.6,1.3-2.3,1.9-2.3c0.5,0,2.7,1.8,3.9,3.3c3.1,3.8,4.5,7.2,5.2,12.6l0.1,1l0.5-1.3
		c0.7-1.9,2.1-7.4,2.5-9.9c0.5-2.5,1-6.2,0.9-6.3c0,0-0.7-0.2-1.5-0.4c-5.9-1.5-10.5-6.9-11.9-13.9c-0.6-3-0.5-7.4,0.3-8.5
		c0.5-0.8,1.9-0.4,4.6,1.1c3.7,2.1,6.7,5.4,8.7,9.4l0.8,1.6l-0.1-6c-0.1-3.3-0.2-7.3-0.3-8.9c-0.2-2.5-0.3-2.9-0.5-2.8
		c-0.2,0.1-1.1,0.2-2,0.2c-6.3,0.3-12.6-3.8-16-10.6c-0.9-1.7-1.6-4.3-1.8-6.1c-0.1-1.3-0.1-1.4,0.4-1.7c0.5-0.3,0.7-0.3,2.3-0.1
		c1,0.1,2.2,0.4,2.8,0.5c5.6,1.5,10.8,5.4,13.2,10.1c0.6,1.1,0.7,1.3,0.6,0.7c-0.1-0.4-0.3-2-0.5-3.6l-0.4-3l-1.5-1.4
		c-3.5-3.3-5.3-7.7-5.3-13.2c0-2.8,0.4-5,1.3-7.3c0.8-2.1,1.5-3,2.2-3.1c0.5-0.1,0.8,0.2,2.2,1.5c2.7,2.6,4.5,5.2,5.6,8.7
		c1.5,4.2,1.5,8.6,0.2,12.4l-0.4,1.2l0.4,2.4c0.2,1.3,0.4,2.4,0.5,2.4c0.1,0,0.3-0.5,0.5-1.1c1.1-2.9,4.2-6.6,7-8.6
		c2.6-1.8,6.3-3.3,7.4-3c0.7,0.2,0.9,0.9,0.9,3c0,9.1-5.9,17.5-13.4,19.3l-1.3,0.3l0.1,0.8c0,0.5,0.1,1.8,0.2,2.9
		c0.1,1.2,0.2,5,0.3,8.6l0.1,6.5l0.6-1.1c2.9-4.8,8.4-8.4,13.9-9.2c2.8-0.4,3.1,0,2.6,2.9c-1.4,9.1-8.9,16.8-16.6,17.1l-1.4,0
		l-0.2,1.9c-0.6,4.5-2,11.2-3.3,15.1l-0.6,1.9l1.2-0.9c3.4-2.6,7.2-4,11.3-4.3c2.1-0.1,4.7,0.2,5.2,0.6c0.5,0.4,0.4,0.9-0.1,2.3
		c-1.9,4.8-5.9,9.2-10.5,11.5c-2.8,1.4-6.8,2.1-9.3,1.6c-0.8-0.2-1.7-0.3-1.8-0.4c-0.2-0.1-0.5,0.2-1.1,1.4c-2.3,4.2-5.4,8.5-9.3,13
		c-0.2,0.3-0.1,0.2,1.1-0.1c2.2-0.6,6.7-0.5,9.1,0.1c3.3,0.9,6.3,2.4,8.2,4.2c0.6,0.6,0.7,0.8,0.7,1.3c-0.1,0.5-0.3,0.8-1.4,1.6
		c-1.7,1.3-4.7,2.8-6.8,3.4c-3.5,1-7.6,1.1-10.8,0.3c-2.1-0.5-4.7-1.9-6.1-3.1c-1-0.9-1.1-1-1.4-0.7c-0.2,0.1-0.8,0.6-1.3,1
		c-2.7,2.2-6.9,5.1-10.8,7.5l-2,1.2l1.7,0.1c2.4,0.2,4.6,0.8,7.1,2c2.5,1.2,4.1,2.4,5.9,4.3c2.2,2.3,2.2,2.9,0.2,3.9
		C324.6,214,319.7,214.8,315.9,214.3L315.9,214.3z M237.5,194.1c-2.1-0.4-4.3-2.1-5.3-4.2l-0.6-1.3l-0.1-23.4l-0.1-23.4l-11.1,7.3
		c-6.1,4-11.4,7.4-11.8,7.5s-1.2,0.2-1.8,0.1c-1.8-0.1-2.4-0.7-4.9-4.4c-2.8-4.3-2.9-4.5-2.9-5.9c0-1.3,0.4-2.4,1.3-3.2
		c0.3-0.3,6.1-4.2,13-8.7c6.8-4.5,12.4-8.2,12.3-8.3c-0.3-0.3-31-20.4-31-20.3c0,0-1.7,2.6-3.8,5.7c-2,3.1-4.1,6-4.5,6.3
		c-0.4,0.4-1.3,1-2,1.3c-1.1,0.5-1.5,0.6-3.1,0.7c-1.5,0.1-2,0-2.9-0.3c-1-0.4-16.2-10.2-18.1-11.6c-1-0.8-1.9-2.2-2.4-3.5
		c-0.4-1.2-0.4-3.5,0-4.8c0.2-0.6,1.6-3,4.2-6.9l3.9-5.9l-0.6-0.8c-1.3-1.8-1.7-4.9-0.8-7.1c0.6-1.5,2.2-3.2,3.8-4
		c1.1-0.5,1.4-0.6,2.9-0.6c0.9,0,1.9,0,2.2,0.1c0.5,0.1,0.6,0,4.5-6c2.2-3.3,4.2-6.3,4.5-6.7c1.7-1.7,4.4-2.6,6.8-2.2
		c0.7,0.1,1.7,0.4,2.2,0.7c0.5,0.2,4.6,2.9,9.2,5.9c7.7,5.1,8.4,5.6,9.2,6.6c1.6,2.2,2,5.4,1,7.7c-0.2,0.5-2.1,3.6-4.2,6.8
		c-3.2,4.9-3.8,5.9-3.6,6.1c0.2,0.2,27.5,18.1,28.2,18.5c0.2,0.1,0.2-2.3,0.2-12l0-12.2l-1.5-0.1c-1.7-0.1-2.7-0.7-3.5-1.9l-0.5-0.8
		l-0.1-20l-0.1-20h-3c-3.7,0-4.6-0.2-5.7-1.4c-1.8-1.8-1.7-4.8,0.2-6.4c1.2-1,1.4-1,8.1-1h6.2v-5v-5l-5.8,0c-3.2,0-6.1-0.1-6.6-0.2
		c-1.7-0.4-2.9-1.6-3.3-3.4c-0.4-1.8,0.3-3.3,1.9-4.5l0.8-0.6l3.6-0.1l3.6-0.1v-7.2V3.1l0.6-1c0.5-0.8,0.9-1.2,1.6-1.6l1-0.5h10h10
		l23.7,6.1c17.9,4.6,23.9,6.2,24.4,6.6c0.4,0.3,1,0.8,1.2,1.3c0.5,0.7,0.5,1,0.5,2.3s-0.1,1.6-0.5,2.3c-0.3,0.4-0.9,1-1.3,1.3
		l-0.8,0.5l-24.8,0l-24.8,0v10.6v10.6H271c18.5,0,24.4,0.1,25,0.2c1,0.3,2.5,1.8,2.8,2.7c0.3,1,0.3,2.2-0.1,3
		c-0.4,0.9-1.3,1.9-2.1,2.3c-0.5,0.2-43.4,10.8-43.9,10.8c-0.1,0-0.1,0.9-0.1,1.9c0,1.6,0,1.9,0.3,1.9c0.6,0,2.4,1,3.5,2
		c0.8,0.7,1.3,1.5,1.8,2.5c0.6,1.3,0.7,1.6,0.8,3.3c0.1,2.3-0.3,3.8-1.6,5.5c-0.9,1.3-2.8,2.6-4.1,2.9l-0.8,0.2v1.6
		c0,2.1-0.5,3.3-1.9,4.2c-0.8,0.5-1.1,0.6-2.5,0.7l-1.6,0.1v12.4c0,6.8,0,12.4,0.1,12.4c0,0,9.8-6.4,21.6-14.1l21.5-14.1l14.5-5.9
		c15.9-6.5,15.3-6.3,16.4-5.1c0.4,0.4,0.5,0.8,0.5,1.4l0,0.8l-5.5,5.4c-3,3-8.1,8-11.4,11.2l-5.9,5.8l-22.2,14.6
		c-12.2,8-22.1,14.6-22.1,14.7c0,0.1,10,6.7,22.2,14.7c12.2,8,22.5,14.9,22.9,15.3s1.1,1.3,1.4,2c2.4,4.8-0.8,10.4-6.1,10.9
		c-2.8,0.2-1.5,1-25.8-15l-22-14.4l-0.1,23.8c-0.1,22.6-0.1,23.9-0.4,24.8C244.9,192.8,241.3,194.9,237.5,194.1L237.5,194.1z
		 M303.6,87l2.6-2.6l-0.6-0.9l-0.6-0.9l-1,0.4c-3.2,1.3-7.7,3.1-7.8,3.2c-0.1,0.1,0.6,1.2,1.4,2.5l1.6,2.4l0.9-0.7
		C300.6,90,302.2,88.5,303.6,87z M181.6,171.1c-1-0.5-1.7-1.2-3.3-3.7c-2-3-2.2-3.5-2.2-5c0-1.4,0.4-2.4,1.3-3.3
		c0.7-0.6,7.2-4.9,8-5.2c1.3-0.5,3.2-0.2,4.4,0.7c0.7,0.6,3.9,5.2,4.4,6.4c0.4,0.9,0.3,2.7-0.1,3.6c-0.5,1.1-1.2,1.7-5.3,4.3
		l-3.6,2.4l-1.4,0.1C182.7,171.4,182.2,171.4,181.6,171.1L181.6,171.1z M197.5,161.9c-0.3-0.1-0.9-0.4-1.2-0.7
		c-0.6-0.5-4.4-5.9-5-7.4c-0.7-1.6-0.3-3.5,1.1-4.6c0.9-0.8,1.5-1,2.7-1c1.8,0,2.6,0.5,4.4,3.3c2.8,4.2,3.3,5,3.4,5.9
		c0.2,1.3-0.2,2.4-1.2,3.4C200.4,162,198.9,162.4,197.5,161.9L197.5,161.9z"/>
</g>
</svg>
