<?xml version="1.0" encoding="utf-8"?>
<!-- Generator: Adobe Illustrator 20.0.0, SVG Export Plug-In . SVG Version: 6.00 Build 0)  -->
<svg version="1.1"
	 id="svg2" inkscape:version="0.91 r13725" sodipodi:docname="jmkfund.svg" xmlns:cc="http://creativecommons.org/ns#" xmlns:dc="http://purl.org/dc/elements/1.1/" xmlns:inkscape="http://www.inkscape.org/namespaces/inkscape" xmlns:rdf="http://www.w3.org/1999/02/22-rdf-syntax-ns#" xmlns:sodipodi="http://sodipodi.sourceforge.net/DTD/sodipodi-0.dtd" xmlns:svg="http://www.w3.org/2000/svg"
	 xmlns="http://www.w3.org/2000/svg" xmlns:xlink="http://www.w3.org/1999/xlink" x="0px" y="0px" viewBox="0 0 319 215.5"
	 style="enable-background:new 0 0 319 215.5;" xml:space="preserve">
<style type="text/css">
	.st0{fill-opacity:0.8462;}
	.st1{fill:#D45500;stroke:#F70000;stroke-width:1.0714;}
</style>
<sodipodi:namedview  bordercolor="#666666" borderopacity="1.0" id="base" inkscape:current-layer="layer1" inkscape:cx="314.10915" inkscape:cy="439.85482" inkscape:document-units="px" inkscape:pageopacity="0.0" inkscape:pageshadow="2" inkscape:window-height="745" inkscape:window-maximized="1" inkscape:window-width="1366" inkscape:window-x="-8" inkscape:window-y="-8" inkscape:zoom="1.4" pagecolor="#ffffff" showgrid="false">
	</sodipodi:namedview>
<g id="layer1" inkscape:groupmode="layer" inkscape:label="Layer 1">
	<path id="path4157" inkscape:connector-curvature="0" class="st0" d="M2.7,106.4V5h155.4h155.4v101.4v101.4H158.2H2.7L2.7,106.4
		L2.7,106.4z M207.5,173.7l-0.4-32.8h-101H5.1l-0.4,32.8l-0.4,32.8h101.9H208L207.5,173.7L207.5,173.7z M25.5,192
		c-0.5-0.5-1-9-1-18.9v-18h9.3c7.3,0,9.3,0.5,9.3,2c0,1.5-1.8,2-7,2h-7v6.6v6.6l7-0.7c5.8-0.6,7-0.3,7,1.5c0,1.7-1.6,2.2-7,2.2h-7v8
		C29.2,190.9,27.8,194.1,25.5,192z M69,190.2c-4-2.7-4.1-3.1-4.1-18.9c0-9.9,0.6-16.1,1.6-16.1c0.9,0,1.6,5.7,1.6,14.3
		c0,15.7,1.3,19.5,6.9,19.5c7.3,0,8.6-3,8.6-19c0-9,0.6-14.8,1.6-14.8c0.9,0,1.6,6.3,1.6,16.1c0,15.8-0.1,16.2-4.1,18.9
		c-2.3,1.5-5.3,2.8-6.8,2.8C74.3,193,71.3,191.7,69,190.2z M112.3,191.4c-0.5-1.1-0.7-9.9-0.4-19.5l0.4-17.5l8.5,12.8l8.5,12.8
		l0.4-12.5c0.7-18.4,3.4-15.5,3.4,3.6c0,8.9,0.4,17.1,0.9,18.3c0.5,1.2,0.3,2.1-0.4,2.1c-0.7,0-4.8-5.2-9.1-11.6l-7.8-11.6
		l-0.5,11.2C116.1,190.5,114.2,195.7,112.3,191.4z M159.7,173.8v-18.7h4.8c12.3,0,21.6,8.4,21.6,19.5c0,5.2-0.9,7.1-5.2,11.2
		c-4.3,4-6.6,5.1-13.2,5.8l-8,0.9V173.8z M173.8,186.6c2.5-1.3,5.6-4.4,7-7c4.8-8.8-3-20.5-13.6-20.5h-4.5V174
		c0,14.2,0.1,14.9,3.3,14.9C167.9,188.9,171.4,187.9,173.8,186.6L173.8,186.6z M312,174v-32.5h-51.3h-51.3V174v32.5h51.3H312V174z
		 M312,107.1V74H158.2H4.3v32.4v32.4l102.2,0.4c56.2,0.2,125.5,0.5,153.9,0.7l51.7,0.3V107.1z M24.8,107.1
		c0.4-18.8,2.9-25.2,4.3-11.5l0.8,7.4l5.1-7.8c2.8-4.3,6.2-7.8,7.5-7.8c2.4,0,0.8,3.1-6.6,12.8c-3.1,4-2.6,6.1,4.2,15.3
		c7,9.6,7.1,9.8,3.9,9.8c-1.2,0-4.6-3.6-7.4-8.1c-2.8-4.5-5.6-8.1-6.3-8.1c-0.6,0-1.2,3.6-1.2,8.1c0,6.4-0.5,8.1-2.4,8.1
		C24.8,125.4,24.5,122.7,24.8,107.1L24.8,107.1z M64.4,116.2c2.2-5,6-13.7,8.3-19.3l4.3-10.1l1.9,4.1c6,13.1,14,32,14,33.2
		c0,2.4-2.9,1.4-3.9-1.4c-0.9-2.4-2.4-2.7-11.7-2.7s-10.8,0.3-11.7,2.7c-0.5,1.5-2,2.7-3.1,2.7C60.9,125.4,61.3,123.2,64.4,116.2
		L64.4,116.2z M85.1,116.2c0-2-6.8-17.9-7.7-17.9c-1.1,0-7.9,15-7.9,17.3c0,1.1,2.7,1.6,7.8,1.6C81.6,117.2,85.1,116.8,85.1,116.2z
		 M111.9,106.8l0.4-18.6l6.2,0.3c8.6,0.5,14,5.3,14,12.7c0,4.4-0.9,6.2-4.3,8.8c-2.4,1.8-6,3.2-8.1,3.2c-3.5,0-3.8,0.5-3.8,6.1
		c0,4.6-0.6,6.1-2.4,6.1C111.8,125.4,111.5,122.7,111.9,106.8L111.9,106.8z M124.5,107.7c2.7-1.9,4.1-4.1,4.1-6.7
		c0-4.3-5.2-9.4-9.6-9.4c-2.4,0-2.8,1.2-2.8,9.5C116.2,111.5,117.5,112.5,124.5,107.7z M152,106.5c0-11.8,0.6-19,1.6-19
		c1,0,1.6,6.5,1.6,16.9v16.9h7.9c11.3,0,9.4,3.3-2.2,3.8l-8.8,0.4L152,106.5L152,106.5z M186.1,124.8c0-0.7,15.7-36.5,16.2-37
		c0.2-0.2,4,8,8.4,18.1c7.6,17.5,9,23.8,3.7,17.1c-2-2.6-3.7-3-12.2-3c-8.3,0-10.1,0.4-11.5,2.7C189.4,125,186.1,126.5,186.1,124.8
		L186.1,124.8z M211,116.6c0-1.3-8.2-19.8-8.6-19.4c-0.5,0.5-8.5,18.7-8.5,19.5c0,0.3,3.8,0.5,8.5,0.5
		C207.2,117.2,211,117,211,116.6L211,116.6z M237.4,107.2c0-10.1,0.3-18.4,0.7-18.4c0.4,0,4,5.2,8.2,11.5c4.1,6.3,8,11.5,8.7,11.5
		c0.6,0,1.2-5.4,1.2-12.1c0-7.2,0.6-12.2,1.6-12.2c1,0,1.6,7,1.6,18.3c0,10-0.3,18.3-0.6,18.3c-0.3,0-4-5.2-8.2-11.5
		c-4.2-6.3-7.9-11.5-8.3-11.5c-0.4,0-0.8,5.2-0.8,11.7c0,8.2-0.6,11.9-1.9,12.3C237.9,125.5,237.4,121.3,237.4,107.2L237.4,107.2z
		 M128.6,39.5V6.4H66.5H4.3v33.1v33.1h62.2h62.2V39.5z M19.8,56.7c0-0.6,2-1.7,4.5-2.5c3.8-1.2,4.7-2.5,5.6-7.5
		c0.6-3.3,0.8-10.4,0.5-15.7c-0.4-7.1,0-9.7,1.4-9.7c1.4,0,1.9,3.8,1.9,14.7c0,12.8-0.4,15.1-3.2,18.3
		C27.6,57.5,19.8,59.3,19.8,56.7L19.8,56.7z M44.7,55c0-1.8,1-2.7,3.1-2.7c2.1,0,3.1,0.9,3.1,2.7s-1,2.7-3.1,2.7
		C45.7,57.7,44.7,56.8,44.7,55z M61.8,39.5c0-10,0.5-18.2,1.2-18.2c0.6,0,3.5,3.1,6.4,6.8s5.8,6.7,6.5,6.7c0.7,0,3.4-2.7,6-6
		s5.4-6.4,6.3-6.8c1-0.5,1.5,5.8,1.5,17.5c0,15.2-0.4,18.3-2.3,18.3c-1.8,0-2.4-2.7-2.7-13.1l-0.4-13.1l-3.9,5c-2.1,2.7-4.2,5-4.7,5
		c-0.4,0-2.5-2.3-4.7-5.1l-3.9-5.1l-0.4,13.2c-0.4,10.5-0.9,13.2-2.7,13.2C62.2,57.7,61.8,54.6,61.8,39.5L61.8,39.5z M100.7,55
		c0-1.8,1-2.7,3.1-2.7c2.1,0,3.1,0.9,3.1,2.7s-1,2.7-3.1,2.7C101.7,57.7,100.7,56.8,100.7,55z M312,38.8V6.4h-90.1h-90.1v32.5v32.5
		h90.1H312V38.8z"/>
	<path id="path4159" inkscape:connector-curvature="0" class="st1" d="M131.9,38.9V6.7h90h90v32.3v32.3h-90h-90V38.9L131.9,38.9z"/>
</g>
</svg>
