<?xml version="1.0" encoding="utf-8"?>
<!-- Generator: Adobe Illustrator 20.0.0, SVG Export Plug-In . SVG Version: 6.00 Build 0)  -->
<svg version="1.1"
	 id="svg2" inkscape:version="0.91 r13725" sodipodi:docname="standardcyborg.svg" xmlns:cc="http://creativecommons.org/ns#" xmlns:dc="http://purl.org/dc/elements/1.1/" xmlns:inkscape="http://www.inkscape.org/namespaces/inkscape" xmlns:rdf="http://www.w3.org/1999/02/22-rdf-syntax-ns#" xmlns:sodipodi="http://sodipodi.sourceforge.net/DTD/sodipodi-0.dtd" xmlns:svg="http://www.w3.org/2000/svg"
	 xmlns="http://www.w3.org/2000/svg" xmlns:xlink="http://www.w3.org/1999/xlink" x="0px" y="0px" viewBox="0 0 399.7 401"
	 style="enable-background:new 0 0 399.7 401;" xml:space="preserve">
<style type="text/css">
	.st0{display:none;}
	.st1{fill-opacity:0.7751;}
</style>
<sodipodi:namedview  bordercolor="#666666" borderopacity="1.0" id="base" inkscape:current-layer="layer2" inkscape:cx="176.42857" inkscape:cy="482.85714" inkscape:document-units="px" inkscape:pageopacity="0.0" inkscape:pageshadow="2" inkscape:window-height="745" inkscape:window-maximized="1" inkscape:window-width="1366" inkscape:window-x="-8" inkscape:window-y="-8" inkscape:zoom="0.35" pagecolor="#ffffff" showgrid="false">
	</sodipodi:namedview>
<g id="layer2" inkscape:groupmode="layer" inkscape:label="Layer 2">
	<g id="layer1" inkscape:groupmode="layer" inkscape:label="Layer 1" class="st0">
	</g>
	<path id="path4147" inkscape:connector-curvature="0" class="st1" d="M-0.3,200.5V0h200h200v200.5V401h-200h-200L-0.3,200.5
		L-0.3,200.5z M367.4,200.8l-0.3-167.2l-167.2-0.3L32.7,33v167.5V368h167.5h167.5L367.4,200.8z M110.1,328.4c0.3-0.9,0.6-2.2,0.6-3
		c0-0.8,1-1.4,2.5-1.4c4.7,0,4.6-2.7-0.6-15.5c-2.7-6.6-4.8-12.4-4.9-12.8c0-0.4,1.4-0.7,3.2-0.5c3.1,0.3,3.4,0.7,6.2,8.5
		c1.6,4.5,3.3,8,3.6,7.8s2-4,3.5-8.4c2.8-7.9,2.8-8,6.2-8c2.3,0,3.3,0.4,2.9,1.2c-12.7,32.1-13.7,33.8-20.5,33.8
		C110.2,330,109.6,329.7,110.1,328.4L110.1,328.4z M213.9,328.5c-3.6-1.6-3.8-2.2-1.8-4.9c1.3-1.7,1.6-1.7,3.7-0.2
		c1.3,0.9,3.6,1.6,5.1,1.6c3.3,0,7.7-4,7.7-7c0-2.4-1.3-2.6-2.9-0.6c-1.9,2.2-5.8,2.7-9.5,1.2c-8.5-3.6-8.9-18.8-0.6-23.1
		c3.9-2,5.9-1.9,9.9,0.6c2.7,1.6,3.3,1.7,2.8,0.5c-0.5-1.2,0.1-1.6,2.9-1.6h3.5v13c0,9.9-0.4,13.8-1.6,16.1
		C230.3,329.5,221,331.6,213.9,328.5L213.9,328.5z M226.5,312.4c2.7-1.9,3-7.9,0.6-10.6c-3.5-3.9-11.3-0.3-11.3,5.2
		c0,2.7,3.9,7,6.4,7C223.2,314,225.2,313.3,226.5,312.4L226.5,312.4z M83,317.5c-9.5-5.7-11.1-19.5-3.1-27.2c4-3.9,7.6-5.3,13.4-5.3
		c4.8,0,7.6,1.1,11.1,4.3c2.9,2.7,2.8,4.1-0.3,5.5c-2.2,1-2.9,0.9-4.7-0.9c-4.3-4-10.2-3.8-14.2,0.6c-4.7,5.1-3.8,14.1,1.8,17.5
		c4.4,2.7,8.8,2.5,12.1-0.5c2.6-2.4,2.8-2.4,5.1-0.9c3,2,3,2.5,0.2,5.1c-3.7,3.3-6.3,4.3-11.9,4.3C88.6,320,86,319.3,83,317.5
		L83,317.5z M136.1,318.7c-0.3-0.7-0.4-8.5-0.2-17.2l0.3-16h3c3,0,3,0.1,3.3,5.8c0.2,3.2,0.6,5.7,1,5.5c0.4-0.2,1.9-1,3.4-1.7
		c3.5-1.8,7.3-0.7,11,2.9c2.5,2.5,2.9,3.6,2.9,8.5c0,6.1-1.9,10.9-4.9,12.5c-2.8,1.5-8.3,1.3-10.8-0.5c-2-1.4-2.2-1.4-2.2,0
		C142.7,320.4,136.9,320.6,136.1,318.7L136.1,318.7z M152.2,312.5c6.1-6.1-0.2-15.5-7.6-11.5c-1.6,0.8-1.9,2.1-1.9,6.5
		c0,4.8,0.3,5.6,2.2,6.4C148.5,315.4,149.6,315.2,152.2,312.5L152.2,312.5z M169.6,318.5c-3.2-1.7-5.9-7.1-5.9-11.8
		c0-5,3.7-9.9,8.8-11.7c3.7-1.3,4.7-1.3,8.4,0c10.3,3.6,11.9,18.4,2.6,23.6C180.4,320.4,172.8,320.3,169.6,318.5z M180.6,313.3
		c3.2-2.7,3.7-7.2,1.1-10.5c-4.3-5.4-11.4-2.3-11.4,4.9C170.3,313.8,176.1,316.9,180.6,313.3L180.6,313.3z M193.7,307.5V295h3
		c2,0,3,0.5,3,1.5c0,1.2,0.6,1.2,3.8-0.5l3.8-2l0.5,2.8c0.5,2.4,0.1,2.9-2.5,3.6c-5.1,1.4-5.5,2.3-5.5,11.3v8.4h-3h-3V307.5z
		 M82.7,269.3c-4.2-1.5-8-3.6-8-4.4c0-0.5,0.7-2,1.6-3.4l1.6-2.5l2.5,2c5.4,4.3,14.8,3.5,14.1-1.2c-0.2-1.7-1.4-2.6-4.8-3.6
		c-9.7-3-12.9-4.9-13.8-8.3c-1-3.8,0.1-7.8,2.8-10.3c4.2-3.8,14.8-3.8,20.6-0.1l2.6,1.7l-2.2,2.4c-2.1,2.2-2.4,2.3-5.2,0.9
		c-1.7-0.9-4.7-1.4-7.1-1.2c-3.4,0.2-4.3,0.7-4.5,2.4c-0.3,2.3,1.6,3.4,9.4,5.3c8.6,2.2,12,7.8,8.9,14.4
		C98.7,268.5,89.1,271.6,82.7,269.3L82.7,269.3z M108.7,268c-1.7-1.7-2-3.3-2-10c0-7.3-0.2-8-2-8c-1.6,0-2-0.7-2-3c0-2.3,0.4-3,2-3
		c1.6,0,2-0.7,2-3c0-2.7,0.3-3,3.3-3c3.1,0,3.3,0.2,2.9,3c-0.4,2.7-0.2,3,2.2,3c2.2,0,2.6,0.4,2.6,3c0,2.5-0.4,3-2.5,3
		c-2.5,0-2.5,0.1-2.2,6.8c0.3,6.1,0.5,6.8,2.5,7.1c2.6,0.4,4.1,4,2.2,5.3C115.2,270.6,110.7,270.1,108.7,268L108.7,268z M123,267.6
		c-3.7-3.2-3.9-9-0.3-11.8c2.4-2,8.2-2.1,12.2-0.4c1.4,0.6,1.8,0.3,1.8-1.8c0-4.3-6.3-6.2-10.7-3.1c-2,1.4-2.3,1.4-3.3-0.7
		c-1-1.8-0.9-2.4,0.6-3.5c4.5-3.3,14.8-2.9,17.7,0.7c1.4,1.7,1.8,4.1,1.8,12v9.9h-3c-1.7,0-3-0.4-3-0.9c0-0.5-1.2-0.3-2.8,0.5
		C129.9,270.6,126.2,270.3,123,267.6z M134.7,265c3.8-2.1,1.7-7-3.1-7c-4.6,0-6.9,4.8-3.2,6.9C130.7,266.2,132.3,266.2,134.7,265
		L134.7,265z M181.1,268.1c-6.9-4.2-7.1-17.7-0.3-22.5c2.9-2,9.2-2.1,10.9-0.1c2.2,2.7,3,1.6,3-4.5c0-6,0-6,3-6h3l0.3,17l0.3,17
		l-3.2,0c-1.7,0-3.3-0.5-3.6-1.2c-0.3-0.8-1.1-0.7-2.8,0.5C188.5,270.5,184.9,270.4,181.1,268.1L181.1,268.1z M193.5,262.8
		c0.7-0.7,1.2-3.3,1.2-6c0-3.9-0.4-5.1-2.4-6.3c-1.9-1.2-3-1.3-5.2-0.5c-1.6,0.6-3.2,1.6-3.6,2.3c-1.3,2.1-0.8,8,0.9,9.9
		C186.2,264.2,191.7,264.6,193.5,262.8z M207.6,267.1c-3.6-3.6-3.8-7.3-0.4-10.7c2.1-2.1,3.3-2.5,6.8-2.1c2.3,0.2,5,0.8,5.9,1.2
		c1.4,0.6,1.8,0.3,1.8-1.8c0-4.3-6.3-6.2-10.7-3.1c-2,1.4-2.3,1.4-3.2-0.4c-1.5-2.8-1.4-3,2.4-4.6c6.4-2.7,15.3-1.1,16.9,3.1
		c0.3,0.9,0.6,5.9,0.6,11v9.4h-3c-1.7,0-3-0.5-3-1c0-0.6-1.3-0.4-3,0.5C214.2,270.8,210.9,270.4,207.6,267.1L207.6,267.1z
		 M220.1,264.7c2.5-1.8,1.6-4.9-1.7-6.1c-3.2-1.1-6,0.1-6.5,3c-0.4,2,2.3,4.5,4.9,4.5C217.6,266,219.1,265.4,220.1,264.7z
		 M253.1,266.6c-3.1-3.1-3.4-3.9-3.4-9.6c0-5.7,0.3-6.5,3.4-9.6c3.8-3.8,8.7-4.6,12.2-1.9c3.1,2.3,3.4,1.9,3.4-4.5c0-6,0-6,3-6h3v17
		v17h-3.6c-2.1,0-3.3-0.4-2.9-1c0.8-1.4,0.2-1.3-3.1,0.5C260.3,270.9,256.9,270.4,253.1,266.6z M266.8,262.3c3.2-2.9,1.8-12-2-12.4
		c-0.4,0-1.5-0.2-2.5-0.4c-2.7-0.5-6.6,3.8-6.6,7.2C255.7,263.1,262.3,266.4,266.8,262.3z M148.7,256.5V244h3c2,0,3,0.5,3,1.5
		c0,1.9,0.9,1.9,3.4,0c2.9-2.2,9.2-1.9,11.6,0.5c1.7,1.7,2,3.3,2,12.5V269h-3h-3v-8.4c0-9.1-0.9-10.9-5.5-10.9
		c-4.6,0-5.5,1.8-5.5,10.9v8.4h-3h-3V256.5L148.7,256.5z M233.7,256.5V244h3c2,0,3,0.5,3,1.5c0,1.9,0.9,1.9,3.4,0
		c3-2.3,4.6-1.8,4.6,1.5c0,2.4-0.4,3-2.1,3c-5.1,0-5.9,1.5-5.9,10.5v8.5h-3h-3V256.5L233.7,256.5z"/>
</g>
</svg>
