<?xml version="1.0" encoding="utf-8"?>
<!-- Generator: Adobe Illustrator 20.0.0, SVG Export Plug-In . SVG Version: 6.00 Build 0)  -->
<svg version="1.1" id="Layer_1" xmlns:sketch="http://www.bohemiancoding.com/sketch/ns"
	 xmlns="http://www.w3.org/2000/svg" xmlns:xlink="http://www.w3.org/1999/xlink" x="0px" y="0px" viewBox="0 0 794 217"
	 style="enable-background:new 0 0 794 217;" xml:space="preserve">
<style type="text/css">
	.st0{fill:url(#Fill-20_1_);}
</style>
<title>Fill 20 + Fill 19 + MANUFACTURING Copy</title>
<desc>Created with Sketch.</desc>
<g id="Page-1" sketch:type="MSPage">
	
		<g id="Fill-20-_x2B_-Fill-19-_x2B_-MANUFACTURING-Copy" transform="translate(1219.000000, 341.000000)" sketch:type="MSLayerGroup">
		
			<linearGradient id="Fill-20_1_" gradientUnits="userSpaceOnUse" x1="-1538.5121" y1="-82.6895" x2="-1539.5121" y2="-82.6895" gradientTransform="matrix(216.4124 0 0 -216.3601 331950.5625 -18123.5293)">
			<stop  offset="0" style="stop-color:#00FF79"/>
			<stop  offset="1" style="stop-color:#2597E9"/>
		</linearGradient>
		<path id="Fill-20" sketch:type="MSShapeGroup" class="st0" d="M-1039.5-222.2c-5.8,5.8-15.3,5.5-20.9-0.2
			c-5.6-5.6-6.4-14.9-0.3-21c5.8-5.8,15.2-5.5,21,0.3C-1033.9-237.3-1033.7-228.1-1039.5-222.2L-1039.5-222.2z M-1100.2-161.6
			c-5.8,5.8-15.3,5.5-20.9-0.2c-5.6-5.6-6.4-14.9-0.3-21c5.8-5.8,15.2-5.5,21,0.3C-1094.6-176.6-1094.4-167.4-1100.2-161.6
			L-1100.2-161.6z M-1160.9-222.3c-5.8,5.8-15.3,5.5-20.9-0.2c-5.6-5.6-6.4-14.9-0.3-21c5.8-5.8,15.2-5.5,21,0.3
			C-1155.3-237.3-1155.1-228.1-1160.9-222.3L-1160.9-222.3z M-1094.9-248.8c-3.7,10.4-3.6,21.7,0.2,32.1
			c-10.4-3.8-21.7-3.9-32.1-0.2c3.7-10.4,3.6-21.7-0.2-32C-1116.6-245.2-1105.2-245.1-1094.9-248.8L-1094.9-248.8z M-1121.4-304.1
			c5.8-5.8,15.2-5.5,21,0.3c5.8,5.8,6,15.1,0.2,20.9c-5.8,5.8-15.3,5.5-20.9-0.2C-1126.8-288.8-1127.5-298-1121.4-304.1
			L-1121.4-304.1z M-1016.6-266.3c-13.4-13.4-32.7-17.2-49.5-11.3c5.9-16.7,2.2-36-11.2-49.4c-18.6-18.6-48.6-18.8-67.2-0.2
			c-13.5,13.5-17.1,33-10.9,49.8c-16.8-6.2-36.3-2.6-49.8,10.9c-18.6,18.6-18.4,48.6,0.2,67.2c13.4,13.4,32.7,17.1,49.4,11.2
			c-5.9,16.7-2.1,36,11.3,49.5c18.6,18.6,48.5,18.7,67.1,0.1c13.5-13.5,17.1-33,11-49.7c16.8,6.1,36.2,2.5,49.7-11
			C-997.9-217.8-998-247.7-1016.6-266.3L-1016.6-266.3z"/>
		<g id="Fill-19-_x2B_-MANUFACTURING-Copy" transform="translate(252.000000, 30.000000)" sketch:type="MSShapeGroup">
			<path id="Fill-19" d="M-727.1-275c-8.6,0-15.2-7.2-15.2-15.5s6.3-15.7,15.2-15.7c8.6,0,15.2,7.1,15.2,15.7
				C-711.9-282-718.5-275-727.1-275L-727.1-275z M-819-275c-8.6,0-15.2-7.2-15.2-15.5s6.3-15.7,15.2-15.7c8.6,0,15.2,7.1,15.2,15.7
				C-803.8-282-810.5-275-819-275L-819-275z M-901.3-276.5c-3.4,3.4-7.8,5.3-12.5,5.3c-1.9,0-3.7-1-3.7-3c0-1.6-0.3-13.6-0.3-16.4
				c0-2.6,0.3-15.3,0.3-16.8c0-1.5,1.4-2.7,3.3-2.7c4.4,0,9.4,1.2,13.6,6c2.4,2.7,4.9,7.8,4.9,13
				C-895.8-284.1-898.5-279.4-901.3-276.5L-901.3-276.5z M-997.5-275c-8.6,0-15.2-7.2-15.2-15.5s6.3-15.7,15.2-15.7
				c8.6,0,15.2,7.1,15.2,15.7C-982.3-282-988.9-275-997.5-275L-997.5-275z M-1089.4-275c-8.6,0-15.2-7.2-15.2-15.5
				s6.3-15.7,15.2-15.7c8.6,0,15.2,7.1,15.2,15.7C-1074.2-282-1080.9-275-1089.4-275L-1089.4-275z M-727.1-340.2
				c-21.1,0-38.9,13.3-46,31.9c-7.1-18.6-24.9-31.9-46-31.9c-21,0-38.7,13.1-45.8,31.5c-3.8-9.6-10-17-15.5-20.6
				c-7.2-4.8-20.1-8-32-8h-21.9c-1.4,0-14.6,0.1-16.2,0c-2-0.1-2.4,0.4-2.2,2.5c0.1,0.8,0.5,13.7,0.9,25.9
				c-7.2-18.3-24.9-31.2-45.7-31.2c-21.1,0-38.9,13.3-46,31.9c-7.1-18.6-24.9-31.9-46-31.9c-18.5,0-34.4,10.2-42.9,25.2
				c0.2-9.1,0.5-18.8,0.6-19.9c0.1-1.9,0-2.6-2.2-2.5c-1.6,0.1-14.8,0.5-16.2,0.5c-1.4,0-15.4-0.4-16.3-0.5c-1.6-0.3-1.8,0.1-1.8,2
				c0,1.5-0.7,29.7-0.7,31.2c-0.1,0.4-2.7,11.9-6.8,18.9c-3-6.3-6.5-12.3-6.5-16.9c0-3,1.2-28.8,1.5-33.3c0.1-1.9-0.1-2.3-1.8-2
				c-1,0.1-15,0.5-16.3,0.5c-1.4,0-14.6-0.4-16.2-0.5c-2-0.1-2.2,0.3-2.2,2.5c0,1.4-0.4,22.4-0.7,31.6c0,0.7,5,14.3,11.2,28
				c6.3,14.2,13.6,28.4,14.1,29.4c0.7,1.4,0.7,2,2.2,1.9c0.8-0.1,7.5-0.4,14.2-0.3c6.7,0,13.5,0.3,14.3,0.3c2.4,0.3,2.2-0.5,2.9-1.9
				c1.2-2.7,7.5-14.2,14-28.4c2.3-5.1,4.5-10.3,6.4-15c0.7,26.8,22.3,48.2,49.2,48.2c21.1,0,38.9-13.2,46-31.8
				c7.1,18.6,24.9,31.8,46,31.8c20.8,0,38.5-12.8,45.7-31c-0.4,12-0.9,25.3-1,26.3c-0.1,1.5,0.5,2,2.2,1.9
				c1.6-0.1,18.8-0.5,20.7-0.5c1.9,0,20.8,0.5,22.4,0.5c15.6,0.3,25.8-5.7,32.1-12.3c3.6-3.8,7.5-9.7,10.3-16.8
				c7,18.7,24.9,31.9,46,31.9c21.1,0,38.9-13.2,46-31.8c7.1,18.6,24.9,31.8,46,31.8c27.3,0,49.2-22.1,49.2-49.5
				C-677.8-318-699.7-340.2-727.1-340.2L-727.1-340.2z"/>
			<path id="MANUFACTURING-Copy" d="M-1187.8-184.4h-5.5v-32.8h8.6l9.9,20.6l9.9-20.6h8.6v32.8h-5.5v-25.6l-11.4,22.8h-3.1
				l-11.4-22.8V-184.4z M-1137.9-191.9l-3.3,7.5h-5.9l14.4-32.8h5.9l14.4,32.8h-5.9l-3.3-7.5H-1137.9z M-1123.8-197l-6-13.5l-6,13.5
				H-1123.8z M-1078.6-217.2h5.5v32.8h-6l-18.6-24v24h-5.5v-32.8h5.5l19,24.5V-217.2z M-1045.8-189.3c2.6,0,4.6-0.9,6.1-2.6
				c1.5-1.8,2.2-4.1,2.2-7.1v-18.2h5.5v18.4c0,4.7-1.3,8.4-3.9,10.9c-2.6,2.6-5.9,3.8-10,3.8c-4.1,0-7.4-1.3-10-3.8
				c-2.6-2.6-3.9-6.2-3.9-10.9v-18.4h5.5v18.2c0,3,0.7,5.4,2.2,7.1C-1050.4-190.2-1048.4-189.3-1045.8-189.3L-1045.8-189.3z
				 M-1013.1-212.1v9h14.5v5.1h-14.5v13.5h-5.5v-32.8h21.8l0,5.2H-1013.1z M-983-191.9l-3.3,7.5h-5.9l14.4-32.8h5.9l14.4,32.8h-5.9
				l-3.3-7.5H-983z M-968.8-197l-6-13.5l-6,13.5H-968.8z M-933.2-189.4c1.9,0,3.5-0.3,4.9-1s2.8-1.7,4.3-3.1l3.6,3.7
				c-3.5,3.9-7.7,5.8-12.6,5.8c-5,0-9.1-1.6-12.3-4.8c-3.3-3.2-4.9-7.2-4.9-12.1s1.7-9,5-12.2c3.3-3.3,7.5-4.9,12.6-4.9
				s9.3,1.9,12.7,5.6l-3.5,3.9c-1.6-1.5-3-2.6-4.4-3.1c-1.4-0.6-3-0.9-4.9-0.9c-3.3,0-6.1,1.1-8.3,3.2c-2.2,2.1-3.4,4.9-3.4,8.2
				c0,3.3,1.1,6.1,3.4,8.4C-938.9-190.6-936.3-189.4-933.2-189.4L-933.2-189.4z M-896.6-212.2v27.8h-5.5v-27.8h-9.9v-5.1h25.4v5.1
				H-896.6z M-862.6-189.3c2.6,0,4.6-0.9,6.1-2.6c1.5-1.8,2.2-4.1,2.2-7.1v-18.2h5.5v18.4c0,4.7-1.3,8.4-3.9,10.9
				c-2.6,2.6-5.9,3.8-10,3.8s-7.4-1.3-10-3.8c-2.6-2.6-3.9-6.2-3.9-10.9v-18.4h5.5v18.2c0,3,0.7,5.4,2.2,7.1
				C-867.2-190.2-865.1-189.3-862.6-189.3L-862.6-189.3z M-809.2-206.6c0,5.4-2.4,8.8-7.1,10.2l8.6,11.9h-7l-7.8-11h-7.3v11h-5.5
				v-32.8h12.2c5,0,8.6,0.8,10.7,2.5C-810.3-213-809.2-210.3-809.2-206.6L-809.2-206.6z M-816.6-201.9c1.1-1,1.7-2.5,1.7-4.7
				s-0.6-3.6-1.7-4.4c-1.2-0.8-3.2-1.2-6.2-1.2h-7v11.7h6.9C-819.8-200.5-817.7-201-816.6-201.9L-816.6-201.9z M-796.6-217.2h5.5
				v32.8h-5.5V-217.2z M-752.7-217.2h5.5v32.8h-6l-18.6-24v24h-5.5v-32.8h5.5l19,24.5V-217.2z M-710.7-200.4h5.5v11.2
				c-3.1,3.4-7.5,5.1-13.3,5.1c-4.8,0-8.9-1.6-12.2-4.8c-3.3-3.2-4.9-7.2-4.9-12.1s1.7-9,5-12.2c3.3-3.3,7.4-4.9,12.1-4.9
				s8.6,1.4,11.8,4.1l-3,4.2c-1.3-1.1-2.6-1.9-3.9-2.3c-1.3-0.4-2.8-0.6-4.5-0.6c-3.3,0-6.1,1.1-8.3,3.2c-2.2,2.1-3.4,5-3.4,8.5
				c0,3.5,1.1,6.3,3.3,8.4c2.2,2.1,4.8,3.2,7.9,3.2c3.1,0,5.7-0.7,7.8-2V-200.4z"/>
		</g>
	</g>
</g>
</svg>
